<?xml version="1.0" standalone="no"?>
<!DOCTYPE svg PUBLIC "-//W3C//DTD SVG 1.1//EN" "http://www.w3.org/Graphics/SVG/1.1/DTD/svg11.dtd">
<svg xmlns="http://www.w3.org/2000/svg">
<metadata>Generated by Fontastic.me</metadata>
<defs>
<font id="lawyer-project" horiz-adv-x="512">
<font-face font-family="lawyer-project" units-per-em="512" ascent="480" descent="-32"/>
<missing-glyph horiz-adv-x="512" />

<glyph glyph-name="as" unicode="&#97;" d="M427 512l-342 0c-47 0-85-38-85-85l0-342c0-47 38-85 85-85l342 0c47 0 85 38 85 85l0 342c0 47-38 85-85 85z m8-256l-83 0 0-224-96 0 0 224-46 0 0 73 46 0 0 48c0 65 28 103 104 103l88 0 0-79-72 0c-21 0-24-11-24-32l0-40 96 0z"/>
<glyph glyph-name="address" unicode="&#98;" d="M218 486c7 0 10-3 10-10 0 0 0-440 0-440 0-7-3-10-10-10 0 0-23 0-23 0-7 0-11 3-11 10 0 0 0 225 0 225 0 0-90 0-90 0-5 0-10 1-14 3-4 1-9 3-13 6 0 0-62 42-62 42-3 2-5 5-5 9 0 3 2 6 5 8 0 0 62 42 62 42 4 3 9 5 13 6 3 1 7 2 14 2 0 0 90 0 90 0 0 0 0 97 0 97 0 7 4 10 11 10 0 0 23 0 23 0m289-106c3-2 5-5 5-8 0-4-2-6-5-8 0 0-61-42-61-42-7-5-11-7-13-7-5-2-9-3-14-3 0 0-155 0-155 0 0 0-20 118-20 118 0 0 175 0 175 0 6 0 11-1 14-2 4-1 8-3 13-6 0 0 61-42 61-42"/>
<glyph glyph-name="adjust" unicode="&#99;" d="M486 276c7 0 13-2 18-6 5-4 8-9 8-14 0-14-9-20-26-20 0 0-24 0-24 0-17 0-26 6-26 20 0 5 3 10 8 14 5 4 11 6 18 6 0 0 24 0 24 0m-230 120c39 0 72-13 100-41 27-27 41-60 41-99 0-40-14-73-41-100-28-28-61-41-100-41-39 0-72 13-99 41-28 27-41 60-41 100 0 39 13 72 41 99 27 28 60 41 99 41m3-242c0 0 0 204 0 204-29 0-54-10-75-30-20-20-30-44-30-72 0-29 10-53 30-73 21-20 46-29 75-29m-182 102c0-14-9-20-26-20 0 0-25 0-25 0-17 0-26 6-26 20 0 5 3 10 8 14 5 4 11 6 18 6 0 0 25 0 25 0 7 0 13-2 18-6 5-4 8-9 8-14m179 179c-5 0-10 3-14 8-4 5-6 11-6 18 0 0 0 25 0 25 0 7 2 13 6 18 4 5 9 8 14 8 5 0 10-3 14-8 4-5 6-11 6-18 0 0 0-25 0-25 0-7-2-13-6-18-4-5-9-8-14-8m0-358c5 0 10-3 14-8 4-5 6-11 6-18 0 0 0-25 0-25 0-7-2-13-6-18-4-5-9-8-14-8-5 0-10 3-14 8-4 5-6 11-6 18 0 0 0 25 0 25 0 7 2 13 6 18 4 5 9 8 14 8m188 338c0 0-17-18-17-18-12-11-23-13-33-4-9 10-8 21 4 33 2 2 8 8 18 18 12 12 23 13 33 3 9-9 8-20-5-32m-358-301c5 5 10 8 17 9 6 1 11-1 15-5 4-4 6-10 5-16-1-7-4-12-8-17 0 0-19-18-19-18-5-5-10-8-17-9-6 0-11 1-14 5-11 10-10 21 3 33 2 2 8 7 18 18m10 330c0 0 19-18 19-18 12-12 13-23 3-33-4-3-9-5-15-4-7 1-12 4-17 8-10 11-16 16-18 18-5 4-8 10-9 17 0 6 1 11 6 15 3 5 8 6 14 6 7-1 12-4 17-9m302-359c-12 12-13 23-4 33 10 9 21 8 33-4 0 0 17-18 17-18 13-12 14-23 5-33-10-9-21-8-33 4-10 10-16 16-18 18"/>
<glyph glyph-name="air" unicode="&#100;" d="M68 350c-6-5-12-7-19-6-7 1-12 4-17 9-5 5-7 11-6 19 0 7 3 13 9 18 16 14 30 24 40 31 11 7 26 14 46 20 20 7 42 8 66 2 24-5 51-16 81-33 30-17 57-27 80-28 23-1 40 2 51 9 11 6 26 18 45 34 13 10 25 9 36-3 11-14 10-26-3-37-41-38-81-56-120-56-34 0-72 12-113 36-23 13-44 21-61 26-18 5-33 5-48 0-14-5-25-10-33-15-8-5-19-14-34-26m376-56c13 11 25 10 36-3 11-14 10-26-3-37-13-12-25-21-33-27-9-7-21-13-37-20-16-6-33-9-50-9-32 0-70 12-113 35-23 13-44 22-61 27-18 5-33 5-48 0-14-5-25-10-33-15-8-5-19-14-34-26-5-5-11-7-18-6-8 1-13 4-18 9-11 14-10 26 3 37 13 12 23 20 31 26 7 5 19 12 35 19 16 8 31 12 45 12 14 0 32-2 54-8 22-5 44-15 68-28 24-13 44-22 61-27 18-5 33-5 48 0 14 5 25 10 33 15 8 5 19 14 34 26m0-131c13 11 25 10 36-3 5-5 7-11 6-19 0-7-3-13-9-18-13-12-25-21-33-27-9-7-21-13-37-20-16-6-33-9-50-9-32 0-70 12-113 35-23 13-44 22-61 27-18 5-33 5-48 1-14-5-25-10-34-15-8-6-19-15-33-27-5-5-11-7-18-6-8 1-13 4-18 9-11 14-10 26 3 37 13 12 23 20 31 26 7 5 19 12 35 19 16 8 31 11 45 12 14 0 32-2 54-8 22-5 44-15 68-29 24-12 44-21 61-26 18-5 33-5 48 0 14 5 25 10 33 15 8 5 19 14 34 26"/>
<glyph glyph-name="alert" unicode="&#101;" d="M478 197c7-6 10-11 8-17-1-6-6-10-14-12 0 0-40-11-40-11-8-2-15-7-20-15-6-7-8-15-7-24 0 0 2-42 2-42 0-8-2-14-8-18-5-3-12-3-19 0 0 0-44 23-44 23-8 4-16 5-24 2-9-3-15-8-18-15 0 0-24-45-24-45-4-8-9-12-14-12-6-1-12 3-17 9 0 0-26 40-26 40-12 17-27 20-45 11 0 0-62-36-62-36-8-5-13-6-17-3-3 2-4 8-1 16 0 0 28 84 28 84 3 8 2 16-2 23-4 6-11 10-19 11 0 0-54 6-54 6-8 1-13 4-15 9-2 5 1 10 8 16 0 0 44 39 44 39 7 5 10 12 10 21 0 8-3 15-10 21 0 0-44 38-44 38-7 6-10 12-8 17 1 6 6 10 14 12 0 0 40 11 40 11 8 2 15 7 21 15 6 7 8 15 8 24 0 0-3 42-3 42 0 9 2 15 7 19 5 3 12 3 19 0 0 0 41-20 41-20 8-3 17-4 25-1 9 3 15 8 19 16 0 0 24 41 24 41 4 7 9 11 15 10 6 0 11-4 15-12 0 0 26-44 26-44 4-7 10-12 18-14 8-3 15-2 23 3 0 0 70 43 70 43 7 5 12 6 15 3 3-2 3-8 0-16 0 0-31-87-31-87-3-8-3-15 1-21 4-7 11-10 20-11 0 0 58-6 58-6 9-1 14-3 15-8 2-5-1-10-8-16 0 0-44-38-44-38-6-6-9-13-9-21 0-9 3-16 9-21 0 0 44-39 44-39m-196-47c0 0 0 53 0 53 0 0-52 0-52 0 0 0 0-53 0-53 0 0 52 0 52 0m0 81c0 0 0 134 0 134 0 0-52 0-52 0 0 0 0-134 0-134 0 0 52 0 52 0"/>
<glyph glyph-name="block" unicode="&#102;" d="M256 502c68 0 126-24 174-72 48-48 72-106 72-174 0-68-24-125-72-174-48-48-106-72-174-72-68 0-125 24-174 72-48 49-72 106-72 174 0 68 24 126 72 174 49 48 106 72 174 72m132-113l0 0m-318-133c0-45 14-84 42-118 0 0 263 263 263 263-34 28-74 42-119 42-52 0-96-18-132-54-36-37-54-81-54-133m54-132l0 0m132-54c52 0 96 18 133 54 36 37 54 81 54 132 0 44-14 84-42 119 0 0-263-263-263-263 34-28 73-42 118-42"/>
<glyph glyph-name="cancel-squared" unicode="&#103;" d="M410 461c14 0 26-5 36-15 10-10 15-22 15-36 0 0 0-308 0-308 0-13-5-25-15-35-10-11-22-16-36-16 0 0-308 0-308 0-13 0-25 5-35 16-11 10-16 22-16 35 0 0 0 308 0 308 0 14 5 26 16 36 10 10 22 15 35 15 0 0 308 0 308 0m-75-327c0 0 44 44 44 44 0 0-79 78-79 78 0 0 79 79 79 79 0 0-44 44-44 44 0 0-79-78-79-78 0 0-78 78-78 78 0 0-45-44-45-44 0 0 79-79 79-79 0 0-79-78-79-78 0 0 45-44 45-44 0 0 78 78 78 78 0 0 79-78 79-78"/>
<glyph glyph-name="cd" unicode="&#104;" d="M256 492c65 0 120-24 166-70 46-46 70-101 70-166 0-65-24-120-70-166-46-46-101-70-166-70-65 0-120 24-166 70-46 46-70 101-70 166 0 65 24 120 70 166 46 46 101 70 166 70m0-313c21 0 39 8 54 23 15 15 23 33 23 54 0 22-8 40-22 55-15 14-33 22-55 22-21 0-39-8-54-23-15-15-23-33-23-54 0-21 8-39 23-54 15-15 33-23 54-23"/>
<glyph glyph-name="comment" unicode="&#105;" d="M410 435c14 0 26-5 36-15 10-10 15-22 15-36 0 0 0-179 0-179 0-14-5-26-15-36-10-10-22-15-36-15 0 0-103 0-103 0 0 0 0-77 0-77 0 0-102 77-102 77 0 0-103 0-103 0-13 0-25 5-35 15-11 10-16 22-16 36 0 0 0 179 0 179 0 14 5 26 16 36 10 10 22 15 35 15 0 0 308 0 308 0"/>
<glyph glyph-name="500px" unicode="&#106;" d="M164 134c12 4 24 10 34 17 11 7 20 16 30 25 9 10 19 20 28 30 9-10 19-20 28-30 10-9 20-18 31-25 11-7 23-13 36-17 12-5 26-7 40-7 19 0 36 4 51 10 15 7 28 16 38 28 10 12 18 26 24 42 5 16 8 33 8 51 0 18-3 35-8 50-6 15-14 29-24 40-10 12-23 21-38 27-15 7-32 10-50 10-15 0-29-2-42-7-13-5-24-11-35-19-11-7-22-16-31-27-10-10-19-20-28-31-9 11-18 22-28 32-10 10-20 19-31 26-11 8-23 14-35 19-13 5-27 7-43 7-18 0-35-4-50-10-15-7-27-16-38-28-10-11-18-24-23-40-5-16-8-32-8-51 0-18 3-35 8-51 6-15 14-29 25-40 11-12 23-21 38-28 15-6 32-10 51-10 16 0 29 2 42 7z m-83 80c-10 10-15 24-15 41 0 15 5 29 15 42 9 12 22 18 38 18 9 0 18-2 27-6 9-4 17-9 25-15 9-6 16-13 24-20 7-7 14-14 19-20-5-6-11-13-18-20-7-6-15-12-23-18-8-5-16-10-25-13-9-4-18-5-26-5-18 0-31 5-41 16z m284-11c-9 3-17 7-25 12-8 6-15 12-22 19-7 6-14 13-20 20 6 6 12 13 19 20 7 7 14 14 22 20 8 6 16 11 25 15 8 4 17 6 26 6 18 0 31-6 41-17 10-12 15-26 15-42 0-17-4-30-14-42-9-11-22-16-39-16-10 0-19 1-28 5z"/>
<glyph glyph-name="500px-with-circle" unicode="&#107;" d="M214 275c-4 3-9 6-13 8-4 2-9 3-13 3-8 0-15-4-20-10-4-6-7-13-7-21 0-8 3-15 8-20 4-5 11-8 20-8 4 0 9 1 13 3 4 1 9 3 13 6 4 3 7 6 11 9 3 4 6 7 9 10-3 3-6 6-10 10-3 4-7 7-11 10z m109 11c-4 0-9-1-13-3-4-2-9-5-12-8-4-3-8-6-11-10-4-4-7-7-10-10 3-3 6-7 10-10 3-4 7-7 11-9 4-3 8-5 13-7 4-1 8-2 13-2 9 0 16 3 20 8 5 6 7 13 7 21 0 8-2 15-7 21-5 6-12 9-21 9z m-67 216c-136 0-246-110-246-246 0-136 110-246 246-246 136 0 246 110 246 246 0 136-110 246-246 246z m124-271c-3-8-7-14-12-20-5-6-12-11-19-14-8-4-16-5-25-5-8 0-14 1-21 3-6 2-12 5-17 9-6 3-11 7-16 12-5 5-9 10-14 15-5-5-9-10-14-15-5-5-10-9-15-12-5-4-11-7-17-9-6-2-13-3-21-3-9 0-18 1-25 5-8 3-14 8-20 13-5 6-9 13-12 21-3 8-4 16-4 25 0 9 1 18 4 25 3 8 7 15 12 21 5 5 11 10 19 13 7 4 15 5 25 5 7 0 14-1 21-3 6-2 12-6 18-9 5-4 10-9 15-14 5-5 10-10 14-15 5 5 9 10 14 15 5 5 10 10 15 14 6 3 12 7 18 9 7 2 14 3 21 3 9 0 18-1 25-5 8-3 14-7 19-13 5-6 9-12 12-20 3-8 4-16 4-25 0-9-1-18-4-26z"/>
<glyph glyph-name="app-store" unicode="&#108;" d="M450 157c-11-23-16-34-30-55-19-28-45-64-79-65-29 0-37 19-77 19-40 0-48-19-78-19-33 0-58 33-77 62-54 81-59 176-26 226 23 36 60 57 94 57 36 0 58-19 87-19 28 0 45 19 86 19 31 0 63-17 86-45-76-42-63-151 14-180z m-131 258c15 18 26 45 22 73-24-2-52-17-69-37-15-19-27-46-22-72 26-1 53 15 69 36z"/>
<glyph glyph-name="baidu" unicode="&#109;" d="M446 334c-9 8-24 11-38 10-10-1-19-1-25-5-29-17-32-111 4-126 76-32 104 86 59 121z m-115-98c-25 29-42 69-91 61-44-7-49-43-73-68-27-30-79-52-91-98-8-34 3-74 23-89 41-29 115 3 169-2 32-4 57-15 82-14 58 1 104 42 79 110-12 32-66 63-98 100z m-7 101c29-1 59 32 61 63 2 40-24 80-63 70-24-6-43-36-45-65-2-35 16-67 47-68z m-112 9c30 4 42 40 37 82-4 34-23 67-63 56-55-16-47-148 26-138z m-105-105c66 10 50 152-22 136-61-15-53-147 22-136z"/>
<glyph glyph-name="basecamp" unicode="&#110;" d="M256 461c-120 0-238-166-238-318 0-35 116-92 238-92 122 0 238 57 238 92 0 152-118 318-238 318z m0-349c-133 0-171 53-171 70 0 33 55 115 75 115 18 0 39-47 59-47 32 0 66 102 92 102 25 0 117-133 117-173 0-7-27-67-172-67z"/>
<glyph glyph-name="behance" unicode="&#111;" d="M207 274c0 0 48 4 48 63 0 59-40 88-90 88l-165 0 0-331 165 0c0 0 101-3 101 98 0 0 4 82-59 82z m-134 92l92 0c0 0 23 0 23-34 0-35-14-40-29-40l-86 0z m88-213l-88 0 0 88 92 0c0 0 34 1 34-45 0-39-25-43-38-43z m240 188c-123 0-122-127-122-127 0 0-9-127 122-127 0 0 108-6 108 88l-56 0c0 0 2-35-51-35 0 0-55-4-55 57l164 0c0 0 18 144-110 144z m49-100l-104 0c0 0 7 51 56 51 49 0 48-51 48-51z m13 165l-131 0 0-41 131 0z"/>
<glyph glyph-name="creative-cloud" unicode="&#112;" d="M323 435c-51 0-96-21-129-54-10 2-20 3-30 3-85 0-154-69-154-154 0-84 69-153 154-153l159 0c99 0 179 80 179 179 0 99-80 179-179 179z m-159-326c-32 0-63 13-86 36-23 23-35 53-35 85 0 33 12 63 35 86 23 23 54 35 86 35 32 0 63-12 85-35l48-48c7-7 7-18 0-25-7-7-18-7-25 0l-48 48c-32 32-88 32-120 0-16-16-25-38-25-61 0-22 9-44 25-60 20-20 49-27 76-22 8-11 18-21 28-30-14-6-29-9-44-9z m263 42c-28-28-65-43-104-43-40 0-77 15-105 43l-69 70c-7 7-7 18 0 25 6 7 18 7 25 0l69-69c21-22 50-33 80-33 30 0 58 11 79 33 21 21 33 49 33 79 0 30-12 58-33 79-21 22-49 33-79 33-23 0-44-6-62-18-10 8-21 14-32 20 26 21 59 34 94 34 39 0 76-15 104-43 28-28 44-65 44-105 0-40-16-77-44-105z"/>
<glyph glyph-name="dribbble" unicode="&#113;" d="M245 322c-35 62-72 112-75 116-56-27-98-78-111-141 5 0 89-1 186 25z m25-68c3 1 5 2 8 3-5 11-11 23-16 34-104-31-203-29-207-29 0-2 0-4 0-6 0-52 19-99 51-134l0 0c0 0 55 97 164 132z m-138-157l0 1c-1 1-3 2-4 3 3-2 4-4 4-4z m76 354c0 0-1 0-1 0 1 0 1 0 1 0z m181-44c-36 31-82 50-133 50-16 0-32-2-47-6 3-4 40-54 75-117 76 29 104 72 105 73z m-133-387c-130 0-235 106-235 236-1 130 105 236 235 236 130 0 236-106 236-236 0-130-106-236-236-236z m34 203c-118-41-157-124-158-125 35-27 77-43 124-43 28 0 54 6 78 16-2 17-14 79-42 153-1-1-1-1-2-1z m9 81c5-9 9-19 14-29 1-3 3-7 4-10 69 8 138-7 140-7 0 48-17 91-46 126 0-1-32-47-112-80z m30-71c27-73 37-132 39-144 46 31 78 79 87 135-4 1-61 19-126 9z"/>
<glyph glyph-name="dribbble-with-circle" unicode="&#114;" d="M263 256c1 1 1 1 2 1-2 5-4 10-7 15-48-14-94-14-102-14 0-1 0-1 0-2 0-24 8-47 24-66 5 9 33 51 83 66z m-68-80c18-13 39-20 61-20 13 0 26 2 38 7-1 10-7 40-21 75-54-19-75-55-78-62z m126 156c-18 16-41 24-65 24-7 0-15 0-22-2 5-7 22-29 37-57 32 13 47 31 50 35z m-73-42c-15 28-31 50-36 56-27-13-47-38-54-68l1 0c10 0 47 1 89 12z m47-47c12-33 17-60 19-69 22 15 36 39 41 65-5 1-21 6-41 6-6 0-13-1-19-2z m-39 259c-136 0-246-110-246-246 0-136 110-246 246-246 136 0 246 110 246 246 0 136-110 246-246 246z m0-366c-66 0-120 54-120 120 0 66 54 120 120 120 66 0 120-54 120-120 0-66-54-120-120-120z m24 144c2-5 4-9 6-14 0-1 1-3 2-4 7 1 14 1 22 1 22 0 40-3 46-4 0 21-8 43-22 60-4-6-20-25-54-39z"/>
<glyph glyph-name="dropbox" unicode="&#115;" d="M156 489l-146-91 100-84 146 94z m188-386c-2 0-5 0-7 2l-81 67-81-67c-2-2-5-2-7-2-3 0-5 0-7 1l-60 40 0-23 155-98 155 98 0 23-60-40c-2-1-4-1-7-1z m158 295l-146 91-100-81 146-94z m-246-175l90-75 145 94-89 72z m-90-75l90 75-146 91-89-72z"/>
<glyph glyph-name="evernote" unicode="&#116;" d="M443 402c0 31-44 33-44 33l-105 8c0 0-2 28-23 38-20 8-43 5-59 5-17 0-20-23-20-41 0-20 0-43 0-56 0-25-10-36-41-36l-59 0c-15 0-28-2-28-15 0-13 20-128 46-154 15-15 110-25 131-25 20 0 12 59 18 59 5 0 12-34 43-41 31-8 74-5 77-29 2-30 5-66-13-69l-43-2c-31 2-23 36-8 36 13 0 20 0 20 0l3 35c0 0-69 8-72-38-2-43 5-61 10-66 6-6 16-13 100-13 110-5 67 340 67 371z m-49-154c-2-5-20 8-36 8-15 0-33-8-38-3-5 6 3 52 33 52 31 0 46-52 41-57z m-258 146c-13 0-75 0-75 0l90 87c0 0-3-71-3-77 0-5-2-10-12-10z"/>
<glyph glyph-name="facebook" unicode="&#117;" d="M435 486l-358 0c-28 0-51-23-51-51l0-358c0-28 23-51 51-51l179 0 0 179-51 0 0 63 51 0 0 53c0 55 31 94 96 94l47 0 0-67-31 0c-26 0-35-19-35-37l0-43 66 0-15-63-51 0 0-179 102 0c28 0 51 23 51 51l0 358c0 28-23 51-51 51z"/>
<glyph glyph-name="facebook-with-circle" unicode="&#118;" d="M256 502c-136 0-246-110-246-246 0-136 110-246 246-246 136 0 246 110 246 246 0 136-110 246-246 246z m58-170l-37 0c-4 0-9-6-9-13l0-27 46 0-7-38-39 0 0-114-44 0 0 114-39 0 0 38 39 0 0 22c0 32 23 58 53 58l37 0z"/>
<glyph glyph-name="houzz" unicode="&#119;" d="M102 256l154-77-154-77z m154 77l154-77 0 154z m0-333l154 77 0 179-154-77z m0 512l-154-77 0-179 154 77z"/>
<glyph glyph-name="grooveshark" unicode="&#120;" d="M256 481c-124 0-225-101-225-225 0-124 101-225 225-225 124 0 225 101 225 225 0 124-101 225-225 225z m91-234c-13 17-25 34-39 50-13 15-26 29-41 42-15 13-31 25-49 34-12 6-24 10-37 14-1 0-5 2-6 0-1-1 0-3 0-4 0-3 1-6 1-8 4-32 5-65-5-96-5-16-14-31-27-43-11-9-26-19-41-18-3 0-5 0-8 1-16 5-17 23-17 37 0 15 2 31 5 45 2 5 3 9 5 14 17 51 58 92 109 110 19 7 39 10 59 10 60 0 116-30 149-80 8-12 15-26 20-40l-1 0c2-4 3-9 5-14 3-14 5-30 5-45 0-29-9-61-45-45-18 7-32 21-42 36z"/>
<glyph glyph-name="google-with-circle" unicode="&#121;" d="M256 502c-136 0-246-110-246-246 0-136 110-246 246-246 136 0 246 110 246 246 0 136-110 246-246 246z m-14-351c-16-8-32-9-39-9-1 0-2 0-2 0 0 0 0 0-1 0-10 0-60 3-60 48 0 45 54 48 71 48l1 0c-10 13-8 26-8 26-1 0-2 0-4 0-6 0-18 1-28 8-13 8-20 22-20 41 0 55 60 57 61 57l59 0 0-1c0-7-12-8-20-10-3 0-8 0-10-1 15-8 18-21 18-40 0-21-9-33-18-41-5-4-10-8-10-14 0-5 6-10 13-16 12-10 27-23 27-46 0-24-10-41-30-50z m129 105l-38 0 0-38-26 0 0 38-38 0 0 26 38 0 0 38 26 0 0-38 38 0z m-160-29c-2 0-3 0-5-1-11 0-21-5-29-12-7-6-11-15-11-24 1-18 21-29 45-27 23 2 39 15 37 34-1 17-16 30-37 30z m22 99c-6 21-16 28-32 28-1 0-3-1-5-1-7-2-12-8-15-16-3-8-3-17 0-27 4-18 17-31 30-31 2 0 3 0 5 1 14 4 23 25 17 46z"/>
<glyph glyph-name="google-play" unicode="&#122;" d="M127 50l196 111-42 46z m-72 408c-2-4-4-9-4-14l0-387c0-8 3-14 7-19l195 200z m392-189l-68 39-70-71 50-56 88 50c8 4 13 11 14 19-1 8-6 15-14 19z m-105 60l-236 133 176-195z"/>
<glyph glyph-name="google-hangouts" unicode="&#65;" d="M256 512c-122 0-220-97-220-218 0-120 98-217 220-217l0-77c86 43 220 136 220 294 0 121-98 218-220 218z m-26-249c0-34-26-62-59-65-3-1-6 2-6 5l0 22c0 3 2 5 5 5 13 2 24 13 27 26l-50 0c-11 0-19 8-19 19l0 65c0 10 8 18 19 18l65 0c10 0 18-8 18-18z m154 0c0-34-26-62-59-65-4-1-6 2-6 5l0 22c0 3 2 5 4 5 14 2 24 13 27 26l-50 0c-10 0-18 8-18 19l0 65c0 10 8 18 18 18l65 0c11 0 19-8 19-18z"/>
<glyph glyph-name="google-drive" unicode="&#66;" d="M209 179l-85-153 303 0 85 153z m-59 274l-150-272 86-155 150 271z m348-248l-156 281-173 0 156-281z"/>
<glyph glyph-name="google" unicode="&#67;" d="M51 369c0-38 13-66 38-82 20-13 44-15 57-15 3 0 5 0 7 0 0 0-4-26 15-51l-1 0c-33 0-140-7-140-96 0-90 98-94 118-94 2 0 3 0 3 0 0 0 1 0 4 0 13 0 45 1 76 16 40 19 60 53 60 100 0 45-31 72-53 91-14 12-26 23-26 33 0 10 9 18 20 27 17 16 34 39 34 81 0 37-5 62-35 78 4 2 15 3 20 4 16 2 40 5 40 18l0 2-118 0c-1 0-119-4-119-112z m190-231c2-36-29-62-75-66-47-3-85 18-88 54-1 17 7 34 22 48 15 13 35 22 58 23 3 1 5 1 8 1 43 0 73-26 75-60z m-31 256c12-41-6-84-33-91-4-1-7-2-10-2-26 0-51 26-60 62-6 19-5 37 1 54 6 16 16 27 30 31 3 1 6 1 10 1 30 0 50-12 62-55z m200-87l0 77-52 0 0-77-76 0 0-51 76 0 0-77 52 0 0 77 76 0 0 51z"/>
<glyph glyph-name="github-with-circle" unicode="&#68;" d="M256 257c0 0 0 0 0 0l0 0c-31 0-58 8-74-7-9-8-13-19-13-30 0-48 38-53 87-53l0 0c49 0 87 5 87 53 0 11-4 22-13 30-16 15-43 7-74 7z m-41-64c-9 0-17 10-17 23 0 13 8 23 17 23 9 0 17-10 17-23 0-13-8-23-17-23z m82 0c-9 0-17 10-17 23 0 13 8 23 17 23 9 0 17-10 17-23 0-13-8-23-17-23z m-41 309c-136 0-246-110-246-246 0-136 110-246 246-246 136 0 246 110 246 246 0 136-110 246-246 246z m22-347c-4 0-13 0-22 0-9 0-18 0-22 0-20 0-97 2-97 95 0 21 7 37 19 50-2 4-2 31 9 57 0 0 23-3 58-27 8 2 20 3 33 3 13 0 25-1 33-3 35 24 58 27 58 27 11-26 11-53 9-57 12-13 19-29 19-50 0-93-77-95-97-95z"/>
<glyph glyph-name="github" unicode="&#69;" d="M337 222c-18 0-33-20-33-46 0-25 15-46 33-46 19 0 34 21 34 46 0 26-15 46-34 46z m116 120c4 10 4 63-16 114 0 0-46-5-116-54-15 5-40 7-65 7-25 0-50-2-64-7-71 49-117 54-117 54-20-51-20-104-16-114-24-25-39-56-39-99 0-184 153-187 192-187 8 0 26 0 44 0 18 0 36 0 44 0 39 0 192 3 192 187 0 43-15 74-39 99z m-196-263l-2 0c-96 0-171 11-171 105 0 23 7 44 26 61 32 29 85 14 145 14 1 0 1 0 1 0 0 0 0 0 1 0 60 0 113 15 145-14 19-17 26-38 26-61 0-94-75-105-171-105z m-82 143c-19 0-34-20-34-46 0-25 15-46 34-46 18 0 33 21 33 46 0 26-15 46-33 46z"/>
<glyph glyph-name="foursquare" unicode="&#70;" d="M126 486c-13 0-24-10-24-23l0-423c0-16 20-24 31-12l114 123c2 2 5 3 7 3l83 0c12 0 23 8 26 21l54 269c4 22-13 42-35 42z m100-286l-72-85 0 311c0 5 4 9 8 9l183 0c9 0 15-8 14-16l-11-53c-1-4-5-8-9-8l-95 0c-8 0-14-6-14-13l0-31c0-4 3-7 7-7l84 0c8 0 14-7 12-15l-15-78c-1-5-6-9-12-9l-69 0c-4 0-8-2-11-5z"/>
<glyph glyph-name="flickr-with-circle" unicode="&#71;" d="M256 502c-136 0-246-110-246-246 0-136 110-246 246-246 136 0 246 110 246 246 0 136-110 246-246 246z m-66-297c-28 0-50 23-50 51 0 28 22 51 50 51 28 0 51-23 51-51 0-28-23-51-51-51z m132 0c-28 0-51 23-51 51 0 28 23 51 51 51 28 0 50-23 50-51 0-28-22-51-50-51z"/>
<glyph glyph-name="flickr" unicode="&#72;" d="M128 154c-56 0-101 45-101 102 0 57 45 102 101 102 56 0 101-45 101-102 0-57-45-102-101-102z m256 0c-56 0-101 45-101 102 0 57 45 102 101 102 56 0 101-45 101-102 0-57-45-102-101-102z"/>
<glyph glyph-name="flattr" unicode="&#73;" d="M143 293c0 42 11 69 49 75 13 2 40 2 57 2l0-64c0-1 0-2 0-3 1-2 3-4 6-4 2 0 3 1 5 2l159 160-226 0c-94 0-142-54-142-155l0-213 92 93z m226 33l0-107c0-42-11-69-49-75-13-2-40-2-57-2l0 64c0 1 0 2 0 3-1 2-3 4-6 4-2 0-3-1-5-2l-159-160 107 0 119 0c94 0 142 54 142 155l0 213z"/>
<glyph glyph-name="icloud" unicode="&#74;" d="M279 384c49 0 88-41 88-91 0-4-1-8-1-13 0 0-4-32-5-40-2-9 4-17 13-17 9 0 42 0 42 0 25 0 45-22 45-48 0-26-20-47-45-47l-309 0c-31 0-56 26-56 58 0 24 13 45 34 54 0 0 11 5 17 7 6 3 13 11 13 20 0 9 0 19 0 19 1 13 11 24 24 24 0 0 2 0 5-1 0 0 20-5 27-6 6-2 15 1 18 8 3 6 13 25 13 25 15 29 45 48 77 48m0 51c-53 0-99-31-122-76-6 2-12 3-18 3-41 0-74-34-75-75-38-17-64-56-64-101 0-60 48-109 107-109l309 0c53 0 96 44 96 98 0 55-43 99-95 99 0 6 1 12 1 19 0 78-62 142-139 142z"/>
<glyph glyph-name="instagram" unicode="&#75;" d="M435 486l-358 0c-28 0-51-23-51-51l0-358c0-28 23-51 51-51l358 0c28 0 51 23 51 51l0 358c0 28-23 51-51 51z m-179-371c78 0 141 63 141 141 0 9-1 17-2 26l40 0 0-185c0-10-8-18-18-18l-322 0c-10 0-18 8-18 18l0 185 39 0c-1-9-2-17-2-26 0-78 63-141 142-141z m-89 141c0 49 40 89 89 89 49 0 88-40 88-89 0-49-39-88-88-88-49 0-89 39-89 88z m250 102l-41 0c-10 0-18 8-18 18l0 42c0 9 8 17 18 17l41 0c10 0 18-8 18-17l0-42c0-10-8-18-18-18z"/>
<glyph glyph-name="instagram-with-circle" unicode="&#76;" d="M333 256c0-42-35-77-77-77-42 0-77 35-77 77 0 4 1 9 1 13l-26 0 0-103c0-7 5-12 12-12l180 0c7 0 12 5 12 12l0 103-26 0c0-4 1-9 1-13z m-77-51c28 0 51 23 51 51 0 28-23 51-51 51-28 0-51-23-51-51 0-28 23-51 51-51z m61 105l31 0c4 0 8 3 8 7l0 31c0 4-4 8-8 8l-31 0c-4 0-7-4-7-8l0-31c0-4 3-7 7-7z m-61 192c-136 0-246-110-246-246 0-136 110-246 246-246 136 0 246 110 246 246 0 136-110 246-246 246z m128-346c0-15-13-28-28-28l-200 0c-15 0-28 13-28 28l0 200c0 15 13 28 28 28l200 0c15 0 28-13 28-28z"/>
<glyph glyph-name="lastfm" unicode="&#77;" d="M219 139c-12-9-37-26-86-26-68 0-133 48-133 138 0 93 68 148 137 148 78 0 107-28 132-105l19-59c14-43 44-74 103-74 40 0 61 8 61 30 0 17-10 30-40 37l-40 9c-48 12-68 38-68 78 0 64 52 84 105 84 60 0 96-22 101-75l-59-7c-2 26-18 36-46 36-26 0-41-12-41-32 0-17 7-28 33-34l38-8c50-12 77-37 77-85 0-59-49-81-122-81-101 0-137 46-155 103l-19 59c-14 43-26 74-77 74-36 0-83-23-83-96 0-56 39-92 80-92 34 0 55 19 66 29z"/>
<glyph glyph-name="lastfm-with-circle" unicode="&#78;" d="M256 502c-136 0-246-110-246-246 0-136 110-246 246-246 136 0 246 110 246 246 0 136-110 246-246 246z m68-318c-52 0-69 23-79 52l-9 30c-7 21-13 37-39 37-18 0-42-12-42-48 0-29 20-47 40-47 18 0 28 10 34 15l9-26c-7-5-19-13-44-13-35 0-67 24-67 69 0 48 34 75 69 75 39 0 54-14 66-53l10-30c7-21 22-37 52-37 20 0 31 4 31 15 0 9-5 15-20 19l-20 5c-25 6-35 18-35 39 0 32 27 42 53 42 30 0 49-11 51-37l-29-4c-2 13-9 18-24 18-13 0-21-6-21-16 0-9 4-14 17-17l19-4c26-6 39-19 39-43 0-30-25-41-61-41z"/>
<glyph glyph-name="linkedin" unicode="&#79;" d="M128 435c0-28-18-51-51-51-31 0-51 23-51 49 0 28 20 53 51 53 31 0 51-23 51-51z m-102-409l102 0 0 332-102 0z m348 327c-54 0-85-30-98-51l-2 0-5 44-92 0c0-29 2-62 2-100l0-220 103 0 0 181c0 11 0 18 2 26 8 18 21 41 49 41 36 0 51-31 51-72l0-176 102 0 0 189c0 95-48 138-112 138z"/>
<glyph glyph-name="linkedin-with-circle" unicode="&#80;" d="M256 502c-136 0-246-110-246-246 0-136 110-246 246-246 136 0 246 110 246 246 0 136-110 246-246 246z m-60-348l-50 0 0 160 50 0z m-25 180c-16 0-26 11-26 25 0 14 10 25 26 25 16 0 26-11 26-25 0-14-10-25-26-25z m207-180l-50 0 0 89c0 21-7 35-25 35-14 0-22-10-26-19-1-3-2-8-2-12l0-93-49 0 0 109c0 20-1 37-2 51l44 0 2-22 1 0c6 11 22 26 49 26 33 0 58-22 58-69z"/>
<glyph glyph-name="mail-with-circle" unicode="&#81;" d="M256 502c-136 0-246-110-246-246 0-136 110-246 246-246 136 0 246 110 246 246 0 136-110 246-246 246z m-96-169l192 0c10 0 5-13-1-17-5-3-82-50-85-51-3-2-6-3-10-3-4 0-8 1-11 3-2 1-79 48-85 51-5 4-11 17 0 17z m198-141c0-5-6-13-11-13l-182 0c-5 0-11 8-11 13 0 0 0 91 0 93 0 3 0 6 4 3 6-4 84-49 87-51 4-3 7-3 11-3 4 0 6 0 10 3 4 2 82 47 88 51 4 3 4 0 4-3 0-2 0-93 0-93z"/>
<glyph glyph-name="medium" unicode="&#82;" d="M480 384c0 0-19 0-19-19 0-19 0-218 0-218 0 0 0-19 19-19l6 0 0-51-153 0 0 51 25 0 0 238-2 0-79-289-69 0-77 289-3 0 0-238 26 0 0-51-128 0 0 51 6 0c0 0 19 0 19 19 0 19 0 218 0 218 0 0 0 19-19 19l-6 0 0 51 169 0 60-221 2 0 60 221 169 0 0-51z"/>
<glyph glyph-name="medium-with-circle" unicode="&#83;" d="M256 502c-136 0-246-110-246-246 0-136 110-246 246-246 136 0 246 110 246 246 0 136-110 246-246 246z m108-186l-3 0c0 0-9 0-9-9 0-9 0-102 0-102 0 0 0-9 9-9l3 0 0-24-72 0 0 24 12 0 0 111-1 0-37-135-32 0-37 135-1 0 0-111 12 0 0-24-60 0 0 24 3 0c0 0 9 0 9 9 0 9 0 102 0 102 0 0 0 9-9 9l-3 0 0 24 80 0 28-104 0 0 29 104 79 0z"/>
<glyph glyph-name="mixi" unicode="&#84;" d="M244 70l25 0 0-55c166 18 255 183 241 300-14 116-140 197-280 179-141-17-243-125-228-242 13-106 118-182 242-182z m158 113l-47 0 0 127c0 5-1 9-1 14-1 4-3 7-5 10-2 2-4 4-8 6-4 2-9 2-16 2-14 0-25-3-32-10-8-7-11-16-11-28l0-121-47 0 0 127c0 5-1 10-2 14 0 4-2 7-4 10-2 3-5 4-8 6-4 2-9 2-15 2-8 0-15-1-20-4-6-3-11-7-14-11-4-4-6-8-8-13-1-4-2-8-2-10l0-121-47 0 0 197 45 0 0-16c15 13 33 20 56 20 13 0 25-3 36-8 8-4 14-9 19-16 6 6 12 11 20 15 12 6 25 9 39 9 10 0 20-1 28-3 9-2 17-6 23-11 7-5 12-11 15-19 4-8 6-17 6-27z"/>
<glyph glyph-name="onedrive" unicode="&#85;" d="M165 260c12 50 57 87 111 87 31 0 61-13 82-36 10 3 20 6 30 6l0 3c0 64-48 115-106 115-42 0-77-26-94-65-13 9-28 14-44 14-45 0-82-40-82-90 0-5 0-11 1-16-35-3-63-39-63-79 0 0 0 0 0-1 0 0 0 0 0-1 0-16 5-30 14-42 13-17 33-27 55-27l32 0c-6 12-10 26-10 41 0 45 32 82 74 91z m293-49c-1 0-1-1-2-1 0 2 1 4 1 6 0 38-31 68-69 68-15 0-28-5-40-13-14 26-41 44-72 44-46 0-83-37-83-83 0-1 0-1 0-2-3 1-6 1-9 1-34 0-62-28-62-62 0-4 0-8 1-12 6-31 33-55 66-55l274 0 0 1c27 2 49 25 49 53 0 30-24 55-54 55z"/>
<glyph glyph-name="paypal" unicode="&#86;" d="M203 239l42 0c92 0 145 41 161 127 1 2 1 5 2 8 1 6 1 11 1 16 1 3 1 5 1 7-1 10-2 19-6 27-3 7-8 15-16 23-21 25-59 39-105 39l-145 0c-10 0-19-7-20-17l-26-168-33-210c-1-7 5-14 13-14l71 0 21 129c3 19 19 33 39 33z m233 117c-21-96-86-148-191-148l-42 0c-5 0-8-3-9-7l-28-175 74 0c9 0 17 6 18 15l1 4 14 90 1 5c1 8 9 15 18 15l11 0c73 0 130 30 147 115 7 36 3 65-14 86z"/>
<glyph glyph-name="sina-weibo" unicode="&#87;" d="M376 254c-7 2-12 4-8 13 8 21 9 38 0 51-16 23-60 22-111 0 0 1-16-7-12 6 8 26 6 47-6 60-27 28-100-2-163-65-47-48-75-99-75-143 0-84 106-140 210-140 135 0 225 85 225 149 0 38-31 60-60 69z m-165-181c-83-8-154 30-159 84-6 55 57 106 139 114 83 8 154-29 160-84 5-54-58-105-140-114z m300 250c0 84-69 153-154 153-10 0-18-8-18-18 0-10 8-18 18-18 65 0 118-52 118-117 0-10 8-18 18-18 10 0 18 8 18 18z m-71 2c-9 40-40 72-80 80-10 2-19-4-21-14-2-10 4-19 14-21 26-5 46-26 51-52 2-10 12-16 22-14 9 2 16 12 14 21z m-271-107c-34-7-56-35-51-63 6-28 37-45 71-38 33 7 55 35 50 62-6 28-37 45-70 39z"/>
<glyph glyph-name="scribd" unicode="&#88;" d="M119 44c0-6-2-13-4-18l147 0c8 9 13 21 13 34 0 35-42 55-134 98l-13 6c-45 22-79 41-102 64l0-113c4 1 9 1 14 1 77 0 79-71 79-72z m316 442l-95 0c44-30 63-72 63-106 0-56-47-74-70-74l-7 0c-52 0-79 32-80 95-3 2-17 11-60 11-50 0-71-39-71-60 0-25 14-53 115-87 173-57 173-134 173-202l0-1c0-11-1-23-3-36l35 0c28 0 51 23 51 51l0 358c0 28-23 51-51 51z"/>
<glyph glyph-name="renren" unicode="&#89;" d="M217 490c-112-19-197-116-197-232 0-58 21-111 56-152 83 39 140 130 141 235z m39-292c-15-61-58-112-113-147 33-18 72-29 113-29 41 0 80 11 113 29-55 35-98 86-113 147z m39 144c0-106 58-196 141-236 35 41 56 94 56 152 0 116-85 213-197 232z"/>
<glyph glyph-name="rdio-with-circle" unicode="&#90;" d="M256 502c-136 0-246-110-246-246 0-136 110-246 246-246 136 0 246 110 246 246 0 136-110 246-246 246z m87-233c1-4 1-8 1-13 0-56-45-101-100-101-55 0-99 45-99 101 0 56 44 101 99 101 8 0 16-1 23-3l0-57c-11 4-26 3-39-3-25-12-37-38-28-59 9-21 37-29 61-17 17 8 32 28 32 52l0 74c2-1 4-2 6-3 19-12 47-28 80-30 12-1-5-33-36-42z"/>
<glyph glyph-name="rdio" unicode="&#48;" d="M415 256c0-110-88-200-197-200-109 0-198 90-198 200 0 110 89 200 198 200 15 0 30-2 45-6l0-113c-23 8-51 7-78-6-48-23-73-76-55-117 18-42 72-56 120-33 34 16 63 55 63 103l0 147c4-2 8-5 12-8 37-23 93-55 158-58 26-1-10-65-70-83 1-8 2-17 2-26z"/>
<glyph glyph-name="rainbow" unicode="&#49;" d="M256 384c-141 0-256-115-256-256l38 0c0 120 98 218 218 218 120 0 218-98 218-218l38 0c0 141-115 256-256 256z m0-154c-57 0-102-45-102-102l38 0c0 35 29 64 64 64 35 0 64-29 64-64l38 0c0 57-45 102-102 102z m0 77c-99 0-179-80-179-179l38 0c0 78 63 141 141 141 78 0 141-63 141-141l38 0c0 99-80 179-179 179z"/>
<glyph glyph-name="raft-with-circle" unicode="&#50;" d="M256 502c-136 0-246-110-246-246 0-136 110-246 246-246 136 0 246 110 246 246 0 136-110 246-246 246z m82-353c-7-7-17-11-27-11-12 0-22 4-29 14-5 6-8 12-12 23l-2 6c-5 13-9 19-15 23-2-7-4-14-6-20-11-31-27-47-48-47-12 0-22 5-29 14-8 10-11 25-7 42l0 3 26-5 0-4c-2-8-1-15 2-19 2-3 4-4 8-4 10 0 20 16 28 45-8 3-16 7-23 13l-3 2 17 21 3-2c3-3 7-6 12-7 2 12 4 26 5 41l0 4 27-2 0-4c-2-15-4-30-6-43 18 2 35 12 44 28 15 25 9 57-14 76-10 8-25 12-39 12-17-1-31-9-43-24-13-17-15-44-3-63l2-3-23-14-2 3c-17 28-15 67 5 94 16 21 38 32 63 33 21 1 41-5 56-17 35-27 43-74 21-111-10-16-25-29-43-36 4-5 7-11 10-20l2-5c6-19 9-20 16-20 3 0 7 1 9 3 4 4 5 12 4 23l-1 3 26 4 1-3c3-20-1-36-12-46z"/>
<glyph glyph-name="raft" unicode="&#51;" d="M145 26c-22 0-42 9-55 26-17 20-22 49-15 81l1 7 51-11-2-7c-3-16-2-30 4-37 4-5 9-7 16-7 20 0 40 31 55 87-17 6-32 14-45 24l-5 5 32 41 5-5c7-6 15-10 24-14 4 25 8 52 10 81l1 8 51-5 0-7c-3-30-7-58-11-84 36 4 68 24 86 54 29 50 18 112-28 148-19 16-48 24-75 23-33-1-61-16-84-45-26-35-29-87-6-123l3-6-43-28-4 6c-34 56-30 131 10 183 31 41 73 63 122 65 40 2 80-11 109-34 66-52 83-143 40-215-19-32-48-57-83-70 7-9 12-21 19-38l4-12c12-35 18-38 31-38 6 0 13 2 17 6 8 8 11 23 7 44l-1 7 51 8 1-7c6-39-1-70-22-89-14-14-33-21-53-21-23 0-43 9-57 26-10 12-15 25-23 47l-4 11c-9 24-17 37-29 43-3-13-7-26-11-37-22-61-54-91-94-91z"/>
<glyph glyph-name="qq-with-circle" unicode="&#52;" d="M256 502c-136 0-246-110-246-246 0-136 110-246 246-246 136 0 246 110 246 246 0 136-110 246-246 246z m103-305c-5-3-12 3-19 13-3-11-10-21-19-29 10-4 16-10 16-17 0-11-17-20-39-20-20 0-37 7-40 17l-4 0c-3-10-20-17-40-17-22 0-39 9-39 20 0 7 6 13 16 17-9 8-16 18-19 29-7-10-14-16-19-13-6 3-5 22 3 42 7 16 16 27 23 30 0 1 0 2 0 3 0 6 1 11 4 16 0 0 0 0 0 1 0 3 1 5 2 7 2 41 28 73 71 73 43 0 69-32 71-73 1-2 2-4 2-7 0-1 0-1 0-1 3-5 4-10 4-16 0-1 0-2 0-3 7-3 16-14 23-30 8-20 9-39 3-42z"/>
<glyph glyph-name="qq" unicode="&#53;" d="M435 179c-20 14-44 13-59-7-14-20-113-145-275-93 6-5 13-10 19-15 107-75 254-50 329 57 14 20 6 44-14 58z m-313 16c-10 22-68 170 58 284-8-2-15-5-23-9-118-55-169-195-115-313 11-22 35-27 57-17 22 10 34 32 23 55z m155 296c-24 2-41-16-43-40-3-25 11-46 35-48 25-2 182-26 218-192 2 8 3 16 4 24 11 130-84 244-214 256z m-101-249c-6-15-7-31-2-33 4-2 10 2 15 10 2-9 8-17 15-23-8-3-13-8-13-13 0-10 14-17 32-17 16 0 29 6 31 14 1 0 3 0 4 0 2-8 15-14 31-14 18 0 32 7 32 17 0 5-5 10-13 13 7 6 13 14 15 23 5-8 11-12 15-10 5 2 4 18-2 33-6 13-13 22-18 24 0 1 0 2 0 3 0 4-2 9-4 12 0 1 0 1 0 1 0 3 0 5-1 6-2 33-23 59-57 59-34 0-55-26-57-59-1-1-1-3-1-6 0 0 0 0 0-1-2-3-4-8-4-12 0-1 0-2 0-3-5-2-12-11-18-24z"/>
<glyph glyph-name="pinterest-with-circle" unicode="&#54;" d="M256 502c-136 0-246-110-246-246 0-136 110-246 246-246 136 0 246 110 246 246 0 136-110 246-246 246z m17-304c-16 1-23 9-35 16-7-35-15-70-40-87-7 54 12 94 20 137-15 25 2 75 33 63 39-16-33-93 15-103 51-10 71 87 40 119-45 46-131 1-121-64 3-16 19-21 7-43-29 6-38 29-37 59 2 50 45 85 88 89 54 7 105-19 112-71 8-57-24-120-82-115z"/>
<glyph glyph-name="pinterest" unicode="&#55;" d="M221 173c-14-70-30-138-79-173-15 107 22 187 39 271-29 50 4 149 66 125 76-30-66-184 29-203 100-20 140 173 79 235-90 91-260 3-239-127 5-32 38-41 13-85-57 13-74 58-72 118 4 98 88 167 173 176 108 12 209-39 223-140 16-115-49-238-164-229-31 2-44 18-68 32z"/>
<glyph glyph-name="picasa" unicode="&#56;" d="M149 465c-79-40-129-121-129-210 0-16 3-32 6-49l204 186c-22 19-79 71-81 73z m204 5c-31 14-63 22-97 22-24 0-48-4-70-12l167-152z m36-20l0-272 89 0c9 25 13 51 13 77 1 78-38 151-102 195z m-352-282c18-43 48-80 87-107l0 186-53-48c-18-16-32-30-34-31z m122-128c24-10 49-17 75-20l43 0c78 8 147 53 185 122l-303 0z"/>
<glyph glyph-name="skype" unicode="&#57;" d="M478 204c3 16 5 32 5 49 0 128-100 232-225 232-13 0-25-2-38-4-20 13-44 21-69 21-72 0-131-60-131-134 0-25 7-48 18-68-3-15-4-31-4-47 0-127 100-231 224-231 15 0 28 2 42 4 18-10 39-16 61-16 72 0 130 60 130 134 1 22-4 42-13 60z m-104-61c-11-15-26-27-46-36-20-8-43-12-70-12-32 0-59 5-81 17-15 8-27 20-37 34-9 14-14 28-14 42 0 8 3 15 9 21 7 6 14 9 24 9 8 0 14-2 20-7 5-4 9-11 13-20 4-9 8-17 13-23 4-6 11-11 19-15 8-4 19-6 32-6 19 0 34 4 45 12 12 8 17 17 17 29 0 9-3 16-9 22-6 6-14 10-24 13-10 4-24 7-41 11-23 5-43 11-59 18-16 7-29 17-38 29-10 13-15 28-15 46 0 18 5 34 15 47 11 14 25 24 44 31 19 7 41 11 66 11 20 0 38-2 52-7 15-5 28-11 38-19 9-8 17-16 21-25 5-9 7-18 7-27 0-8-3-15-9-22-6-7-14-10-23-10-8 0-15 2-19 6-4 4-9 10-14 19-5 11-12 19-20 25-7 6-20 9-37 9-16 0-30-3-39-10-10-6-14-13-14-22 0-5 1-9 4-13 4-4 8-8 14-11 6-3 12-5 18-7 6-2 17-4 31-8 18-4 35-8 50-13 14-5 27-11 38-18 11-7 19-17 25-28 6-11 9-25 9-40 0-20-5-37-15-52z"/>
<glyph glyph-name="skype-with-circle" unicode="&#33;" d="M311 260c-5 4-13 7-21 10-8 3-18 5-28 7-8 2-14 4-17 5-4 1-7 2-10 4-4 1-6 3-8 6-2 2-2 4-2 7 0 5 2 9 7 13 6 3 13 5 22 5 10 0 17-1 21-5 4-3 8-8 11-14 3-5 6-8 8-10 2-3 6-4 11-4 5 0 9 2 13 6 3 3 5 7 5 12 0 5-2 10-4 15-3 5-7 10-12 14-6 4-13 8-21 11-8 2-18 4-29 4-15 0-27-2-37-6-11-4-19-10-25-18-5-7-8-16-8-26 0-10 2-19 8-26 5-7 12-12 21-16 9-4 20-7 33-10 10-2 18-4 23-6 6-2 10-5 14-8 3-3 5-7 5-12 0-7-3-12-10-16-6-5-15-7-25-7-7 0-14 1-18 3-5 2-8 5-11 9-2 3-5 8-7 13-2 5-4 8-7 11-3 3-7 4-11 4-6 0-10-2-14-5-3-3-5-8-5-12 0-8 3-16 8-24 6-8 13-14 21-19 12-6 27-9 45-9 15 0 28 2 39 7 12 5 20 11 26 20 6 8 9 18 9 29 0 9-2 16-5 22-4 7-9 12-15 16z m-55 242c-136 0-246-110-246-246 0-136 110-246 246-246 136 0 246 110 246 246 0 136-110 246-246 246z m59-384c-13 0-24 4-35 9-7-1-15-2-23-2-69 0-125 58-125 130 0 9 0 17 2 26-6 11-10 24-10 38 0 41 33 75 73 75 14 0 28-5 39-12 7 1 14 2 21 2 70 0 126-58 126-129 0-10-1-19-3-28 5-10 8-22 8-34 0-41-33-75-73-75z"/>
<glyph glyph-name="slideshare" unicode="&#34;" d="M333 331c35 0 64 28 64 64 0 35-29 64-64 64-36 0-64-29-64-64 0-36 28-64 64-64z m149 29c-91-66-133-54-175-53-28 2-38-7-38-27l0-154c0-128 215-88 132 127 43 24 79 62 99 87 11 16 0 32-18 20z m-303 99c-35 0-64-29-64-64 0-36 29-64 64-64 36 0 64 28 64 64 0 35-28 64-64 64z m26-152c-42-1-84-13-175 53-18 12-29-4-18-20 20-25 56-63 99-87-83-215 132-255 132-127l0 154c0 20-10 29-38 27z"/>
<glyph glyph-name="smashing" unicode="&#35;" d="M257 102c-65 0-109 39-109 39l-38-86c26-14 53-24 69-29l-41-10c-19-4-38 8-43 27l-79 331c-4 19 8 38 27 43l95 22c-23-26-33-57-30-93 3-56 57-99 121-124 120-45 92-120 28-120z m239 36l-79 331c-5 19-24 31-43 27l-69-17c18-2 52-10 90-30l-29-82c0 0-25 28-91 31-63 3-98-65 24-105 94-31 124-90 123-145-1-29-11-52-22-69l69 16c19 5 31 24 27 43z"/>
<glyph glyph-name="soundcloud" unicode="&#36;" d="M17 178l9 36-9 37c0 1-2 2-5 2-2 0-4-1-5-2l-7-37 7-36c1-1 3-2 5-2 3 0 5 1 5 2z m53-20l7 55-7 86c-1 2-3 4-6 4-4 0-6-2-7-4l-6-86 6-55c1-2 3-4 7-4 3 0 5 2 6 4z m52 1l6 54-6 114c0 3-3 5-7 5-4 0-7-2-7-5l-6-114 6-54c0-3 3-5 7-5 4 0 7 2 7 5z m52 1l5 53-5 115c0 3-3 6-8 6-4 0-8-3-8-6l-4-115 4-53c0-4 4-6 8-6 5 0 8 2 8 6z m53 0l3 53-3 132c-1 4-5 7-10 7-5 0-9-3-9-7l-3-132 3-53c0-3 4-6 9-6 5 0 9 3 10 6z m36-6c0 0 182 0 183 0 36 0 66 28 66 63 0 36-30 64-66 64-9 0-18-2-25-5-6 58-56 103-116 103-15 0-30-3-43-8-5-2-6-3-6-7l0-203c0-4 3-7 7-7z"/>
<glyph glyph-name="spotify" unicode="&#37;" d="M256 481c-124 0-225-101-225-225 0-124 101-225 225-225 124 0 225 101 225 225 0 124-101 225-225 225z m89-340c-4 0-7 1-11 3-30 19-68 29-109 29-21 0-43-3-67-8l-2 0c-3-1-6-2-9-2-9 0-17 7-17 17 0 9 6 16 15 18 28 6 54 9 80 9 48 0 90-11 127-32 6-4 10-8 10-18 0-9-8-16-17-16z m23 65c-5 0-8 2-11 4-55 33-137 43-204 26-1-1-2-1-3-1-3-1-5-2-9-2-11 0-20 9-20 20 0 11 6 18 16 21 26 7 50 12 85 12 57 0 112-14 155-40 8-4 11-10 11-20 0-11-9-20-20-20z m27 75c-5 0-8 1-13 4-37 22-95 35-155 35-31 0-60-3-85-10-1 0-1 0-2 0-3-1-6-2-10-2-13 0-23 10-23 24 0 11 6 20 17 23 30 9 65 14 103 14 68 0 134-16 179-42 8-5 12-12 12-23 0-13-10-23-23-23z"/>
<glyph glyph-name="spotify-with-circle" unicode="&#38;" d="M256 502c-136 0-246-110-246-246 0-136 110-246 246-246 136 0 246 110 246 246 0 136-110 246-246 246z m76-344c-4 0-7 1-9 3-26 16-58 24-93 24-18 0-37-2-57-6l-3-1c-2-1-5-1-7-1-8 0-14 6-14 14 0 8 4 14 12 15 24 6 47 9 69 9 40 0 77-10 107-28 6-4 9-7 9-15 0-8-6-14-14-14z m20 56c-5 0-8 1-10 3-47 28-117 37-174 22-1-1-2-1-3-1-2-1-4-2-7-2-9 0-17 8-17 18 0 9 5 15 14 18 22 6 43 10 72 10 49 0 95-12 132-34 7-4 10-9 10-17 0-10-8-17-17-17z m22 63c-4 0-6 1-10 3-32 20-82 31-133 31-27 0-51-3-72-9-1 0-1 0-2 0-2-1-5-2-8-2-11 0-20 9-20 20 0 10 5 18 15 21 25 7 55 11 87 11 59 0 114-13 153-36 7-4 10-10 10-19 0-11-8-20-20-20z"/>
<glyph glyph-name="stumbleupon" unicode="&#39;" d="M283 306l35-17 53 17 0 30c0 63-52 115-115 115-63 0-115-52-115-115l0-160c0-15-12-27-26-27-15 0-27 12-27 27l0 67-88 0 0-67c0-63 51-115 115-115 63 0 114 52 114 115l0 160c0 15 12 27 27 27 15 0 27-12 27-27l0-30z m141-63l0-67c0-15-12-27-27-27-14 0-26 12-26 27l0 68-53-17-35 17 0-68c0-63 51-115 114-115 64 0 115 52 115 115l0 67z"/>
<glyph glyph-name="stumbleupon-with-circle" unicode="&#40;" d="M256 502c-136 0-246-110-246-246 0-136 110-246 246-246 136 0 246 110 246 246 0 136-110 246-246 246z m0-189c-7 0-14-6-14-14l0-81c0-32-26-58-57-58-32 0-58 26-58 58l0 34 44 0 0-34c0-7 6-13 14-13 7 0 13 6 13 13l0 81c0 32 26 58 58 58 32 0 58-26 58-58l0-15-27-9-17 9 0 15c0 8-6 14-14 14z m129-95c0-32-26-58-58-58-31 0-57 26-57 58l0 35 17-9 27 9 0-35c0-7 6-13 13-13 8 0 14 6 14 13l0 34 44 0 0-34z"/>
<glyph glyph-name="swarm" unicode="&#41;" d="M263 30c-36 6-70 16-94 24-1 0-20 7-26 9-7 3-10 11-8 18 2 6 10 25 11 26 10 23 25 55 45 86 1-30 8-61 21-89 12-28 30-53 51-74z m-3 302c-71 146-230 141-255 75-19-50 65-169 259-83 0 0 0 0 0 0-1 2-3 7-4 8z m36 6c0 0 0 0 0 0 109 48 94 133 66 144-38 14-108-42-68-140 0-1 2-3 2-4z m201-107c-17 37-47 64-82 77-4 1-7 1-11 1-18 0-36-15-38-34-3-32 4-64 18-95 13-31 33-57 58-76 6-5 14-7 22-7 14 0 29 8 34 21 15 35 16 76-1 113z m-83-163c-31 23-55 55-72 93-18 40-25 79-21 118 1 11 4 21 9 31-1 0-3-1-3-1-16-4-32-11-45-20-21-13-38-33-46-56-2-6-3-13-4-19-2-31 3-64 16-94 14-30 33-54 57-73 14-12 41-19 62-19 20 0 40 6 58 15 5 3 17 11 18 11-10 3-20 8-29 14z"/>
<glyph glyph-name="tripadvisor" unicode="&#42;" d="M512 358l-72 0c-51 34-112 52-184 52-72 0-133-18-184-52l-72 0c11-11 21-34 25-52-15-21-25-47-25-76 0-70 57-128 128-128 34 0 65 14 88 35l40-60 40 60c23-21 54-35 88-35 71 0 128 58 128 128 0 29-10 55-25 76 4 18 14 41 25 52z m-384-215c-48 0-87 39-87 87 0 48 39 87 87 87 48 0 87-39 87-87 0-48-39-87-87-87z m128 87c0 62-44 114-103 126 31 10 65 15 103 15 38 0 72-5 103-15-59-12-103-64-103-126z m128-87c-48 0-87 39-87 87 0 48 39 87 87 87 48 0 87-39 87-87 0-48-39-87-87-87z m-256 142c-30 0-55-24-55-55 0-30 25-55 55-55 30 0 55 25 55 55 0 31-25 55-55 55z m0-71c-9 0-17 7-17 16 0 10 8 17 17 17 9 0 17-7 17-17 0-9-8-16-17-16z m256 71c-30 0-55-24-55-55 0-30 25-55 55-55 30 0 55 25 55 55 0 31-25 55-55 55z m0-71c-9 0-17 7-17 16 0 10 8 17 17 17 9 0 17-7 17-17 0-9-8-16-17-16z"/>
<glyph glyph-name="tumblr" unicode="&#43;" d="M399 46c-20-9-38-16-54-20-16-4-33-6-52-6-21 0-40 3-56 9-17 5-31 13-42 23-12 10-20 21-24 32-5 11-7 28-7 49l0 166-51 0 0 66c18 6 34 15 47 26 13 11 23 25 31 40 8 16 13 36 16 61l66 0 0-120 111 0 0-73-111 0 0-121c0-28 2-45 5-53 3-8 8-14 16-18 10-7 22-10 35-10 24 0 47 8 70 23z"/>
<glyph glyph-name="tumblr-with-circle" unicode="&#44;" d="M256 502c-136 0-246-110-246-246 0-136 110-246 246-246 136 0 246 110 246 246 0 136-110 246-246 246z m66-352c-10-5-19-8-27-10-8-2-17-3-27-3-10 0-20 1-28 4-8 3-16 7-21 12-6 5-10 10-13 16-2 6-3 14-3 25l0 84-26 0 0 33c9 3 17 8 24 13 6 6 12 13 16 21 4 8 6 18 8 30l33 0 0-60 56 0 0-37-56 0 0-62c0-13 1-22 3-26 1-4 4-7 8-9 5-4 11-5 17-5 12 0 24 4 36 12l0-38z"/>
<glyph glyph-name="yelp" unicode="&#45;" d="M321 193l116-38c0 0 16-3 16-14 0-8-5-17-5-17l-49-70c0 0-9-7-17-7-9 0-19 13-19 13l-62 105c0 0-7 15 1 23 8 8 19 5 19 5z m-25 48c6-10 22-8 22-8l116 35c0 0 16 6 18 15 2 8-3 19-3 19l-55 65c0 0-5 9-15 9-11 1-17-12-17-12l-66-104c1 0-5-10 0-19z m-54 40c13 3 15 23 15 23l-1 166c0 0-2 21-11 26-14 9-18 5-22 4l-96-36c0 0-10-3-15-11-7-11 8-28 8-28l99-137c0 0 10-10 23-7z m-24-67c0 13-15 20-15 20l-103 53c0 0-16 6-23 2-6-4-11-10-11-15l-7-83c0 0-1-15 3-22 5-9 22-2 22-2l121 26c4 4 12 4 13 21z m30-45c-10 5-23-6-23-6l-80-89c0 0-10-14-8-23 2-7 6-11 12-14l81-26c0 0 10-2 17 0 11 3 9 20 9 20l2 121c0 0-1 12-10 17z"/>
<glyph glyph-name="xing-with-circle" unicode="&#46;" d="M256 502c-136 0-246-110-246-246 0-136 110-246 246-246 136 0 246 110 246 246 0 136-110 246-246 246z m-50-284c0 0-2-5-4-8-1-4-6-5-8-5l-37 0c-6 0-6 5-4 8 1 3 2 5 2 5l29 57-16 32c0 0-1 2-2 5-2 3-2 8 4 8l36 0c3 0 7-1 9-5 2-3 4-8 4-8l16-32z m153 145c-1-3-2-5-2-5l-64-128 38-76c0 0 1-2 3-5 1-3 1-8-5-8l-36 0c-3 0-7 1-9 5-2 3-4 8-4 8l-38 76 64 128c0 0 2 5 4 8 1 4 6 5 8 5l37 0c6 0 6-5 4-8z"/>
<glyph glyph-name="xing" unicode="&#47;" d="M453 486l-72 0c-6 0-14-2-18-9-3-7-8-16-8-16l-128-256 77-154c0 0 4-9 8-16 3-7 12-9 18-9l72 0c13 0 12 9 9 16-3 6-5 9-5 9l-76 154 128 256c0 0 1 3 4 9 4 7 4 16-9 16z m-279-112c-3 7-11 10-17 10l-73 0c-12 0-12-10-9-16 4-7 5-10 5-10l32-64-58-115c0 0-1-3-4-9-4-7-4-16 9-16l72 0c6 0 14 2 18 9 3 7 8 16 8 16l57 115-32 64c0 0-4 9-8 16z"/>
<glyph glyph-name="windows-store" unicode="&#58;" d="M243 429l0-160 218 0 0 192z m-192-160l167 0 0 156-167-24z m192-186l218-32 0 192-218 0z m-192 28l167-24 0 156-167 0z"/>
<glyph glyph-name="vk-with-circle" unicode="&#59;" d="M256 502c-136 0-246-110-246-246 0-136 110-246 246-246 136 0 246 110 246 246 0 136-110 246-246 246z m95-278c0 0 21-21 27-31 0 0 0 0 0 0 2-4 3-7 1-9-1-4-7-5-10-5 0 0-37 0-38 0-3 0-8 0-15 5-5 3-10 9-15 15-8 9-14 16-21 16 0 0-1 0-2 0-5-2-11-9-11-27 0-6-5-9-8-9 0 0-17 0-18 0-6 0-37 2-65 31-33 36-64 107-64 108-2 4 2 7 6 7l39 0c5 0 7-3 8-6 1-3 6-16 15-31 13-23 22-33 28-33 1 0 3 0 4 1 8 5 7 36 6 42 0 1 0 14-4 20-3 4-9 6-12 6 1 2 3 4 5 5 6 3 17 3 27 3l6 0c12 0 15-1 19-2 8-2 9-7 8-26 0-5-1-11-1-18 0-2 0-3 0-5 0-10 0-20 7-25 0 0 1-1 2-1 3 0 10 0 29 33 8 14 15 31 15 32 0 1 2 3 3 4 1 1 2 1 3 1l46 0c5 0 8-1 9-3 1-3-1-12-21-41-4-4-7-8-10-12-19-24-19-26 2-45z"/>
<glyph glyph-name="vk-alternitive" unicode="&#60;" d="M486 77l0 358c0 28-23 51-51 51l-358 0c-30 0-51-21-51-51l0-358c0-30 21-51 51-51l358 0c28 0 51 23 51 51z m-97 138c0 0 29-29 36-42 0 0 0-1 0-1 3-5 4-8 2-11-2-5-10-7-13-7 0 0-50 0-51 0-4 0-11 1-20 7-7 5-14 13-21 20-10 12-18 22-27 22-1 0-2 0-3-1-7-2-15-11-15-36 0-8-6-12-10-12 0 0-23 0-24 0-8 0-49 2-86 41-46 48-86 143-86 144-3 6 2 10 8 10l52 0c7 0 9-4 10-8 2-4 9-22 20-41 18-32 29-45 38-45 2 0 3 1 5 2 11 6 9 47 9 56 0 1 0 18-6 26-5 6-12 8-16 9 1 2 4 4 7 6 8 4 22 4 36 4l8 0c15 0 19-1 25-2 11-3 11-10 10-35 0-7 0-15 0-25 0-2 0-4 0-6-1-13-1-27 8-33 1-1 2-1 4-1 3 0 12 0 38 43 11 19 19 42 20 44 0 1 2 3 4 4 1 1 3 1 4 1l61 0c6 0 11-1 12-3 1-4-1-17-28-54-5-6-9-12-13-16-25-33-25-35 2-60z"/>
<glyph glyph-name="vk" unicode="&#61;" d="M456 197c0 0 41-41 51-60 1 0 1 0 1-1 4-7 5-12 3-16-3-7-15-10-19-10 0 0-71 0-73 0-5 0-16 1-29 10-10 7-20 18-29 29-14 17-27 31-39 31-2 0-3 0-5-1-9-3-21-16-21-52 0-11-9-17-15-17 0 0-32 0-33 0-12 0-71 4-124 59-65 68-123 205-123 206-4 9 4 14 12 14l74 0c10 0 13-6 15-12 3-6 13-31 29-58 25-45 41-64 54-64 2 0 4 1 6 2 17 9 14 68 13 80 0 2 0 26-8 38-6 8-17 11-23 13 2 2 5 6 10 8 11 6 31 6 52 6l11 0c22 0 28-1 36-3 16-4 16-15 15-50-1-10-1-22-1-35 0-3 0-6 0-9-1-19-2-39 11-48 2-1 4-1 6-1 4 0 18 0 54 62 16 27 28 60 29 62 1 1 3 5 5 7 2 1 5 1 6 1l87 0c10 0 16-1 17-5 2-6 0-23-40-77-6-9-12-17-17-23-36-48-36-50 2-86z"/>
<glyph glyph-name="vine-with-circle" unicode="&#62;" d="M256 502c-136 0-246-110-246-246 0-136 110-246 246-246 136 0 246 110 246 246 0 136-110 246-246 246z m49-165c-10 0-16-9-16-27 0-35 22-55 51-55 5 0 11 0 17 2l0-28c-10-2-19-3-28-3-19-41-54-75-65-82-8-4-15-4-23 0-14 9-68 53-86 193l39 0c10-84 34-127 61-159 14 15 28 34 39 56-26 14-42 43-42 77 0 34 20 60 54 60 33 0 51-20 51-56 0-13-3-28-8-39-25-5-33 11-33 11 1 6 4 16 4 25 0 17-6 25-15 25z"/>
<glyph glyph-name="vine" unicode="&#63;" d="M447 257c-11-2-22-3-32-3-55 0-97 38-97 105 0 32 12 49 30 49 17 0 29-15 29-46 0-18-5-37-9-48 0 0 17-30 64-21 9 22 15 50 15 75 0 67-34 106-97 106-64 0-101-50-101-115 0-64 30-119 80-144-21-42-48-79-76-106-50 60-95 141-114 299l-74 0c34-263 136-347 163-363 16-9 29-9 43-1 22 13 87 79 124 155 15 1 33 2 52 6z"/>
<glyph glyph-name="vimeo-with-circle" unicode="&#64;" d="M256 502c-136 0-246-110-246-246 0-136 110-246 246-246 136 0 246 110 246 246 0 136-110 246-246 246z m113-199c-13-74-86-138-108-152-22-14-42 6-49 21-8 18-33 112-40 120-6 8-26-8-26-8l-9 13c0 0 40 48 70 54 32 6 32-50 39-81 8-31 13-48 19-48 7 0 19 17 33 43 13 26-1 49-27 32 10 65 111 81 98 6z"/>
<glyph glyph-name="vimeo" unicode="&#91;" d="M484 362c-26-147-170-272-213-301-43-29-83 11-97 42-16 34-65 221-78 237-13 15-52-16-52-16l-18 25c0 0 78 96 138 108 63 12 63-99 78-161 15-60 25-94 37-94 13 0 38 33 65 84 27 52-1 97-54 65 21 128 220 159 194 11z"/>
<glyph glyph-name="twitter-with-circle" unicode="&#93;" d="M256 502c-136 0-246-110-246-246 0-136 110-246 246-246 136 0 246 110 246 246 0 136-110 246-246 246z m100-202c0-2 0-4 0-6 0-64-49-138-138-138-27 0-52 8-74 22 4 0 8 0 12 0 22 0 43 7 60 20-21 1-39 15-45 34 3-1 6-1 9-1 4 0 8 1 12 2-22 4-38 24-38 47l0 1c6-4 14-6 22-6-13 8-22 23-22 40 0 9 2 17 7 24 24-29 59-48 99-50 0 3-1 7-1 11 0 27 22 48 49 48 13 0 26-6 35-15 11 2 21 6 31 12-4-12-12-21-22-27 10 1 19 4 28 8-6-10-15-19-24-26z"/>
<glyph glyph-name="twitter" unicode="&#94;" d="M443 352c0-4 1-8 1-12 0-128-98-275-275-275-55 0-106 16-149 43 8-1 16-1 24-1 45 0 86 15 120 41-43 1-78 29-91 67 6-1 12-2 18-2 9 0 18 2 26 4-44 9-78 48-78 95 0 0 0 0 0 1 13-7 28-12 44-12-26 17-43 47-43 80 0 18 5 34 13 49 48-59 119-97 199-101-1 7-2 14-2 22 0 53 43 96 97 96 27 0 53-11 70-30 22 4 43 12 62 23-8-22-23-41-43-53 20 2 38 7 56 15-13-19-30-36-49-50z"/>
<glyph glyph-name="youko" unicode="&#95;" d="M497 203c-14 27-54 44-72 67 12 28 76 44 70 92-3 34-55 36-68 8-10-11-21-22-32-32-5-7-11-13-18-19-8-8-15-18-25-23l0 66c0 36-67 36-67 0l0-188c3-13 9-24 23-25l20 0c14 2 22 11 24 25l0 41c0 14-3 37 6 23 14-13 33-28 51-44 16-15 32-40 50-44 36-7 51 27 38 53z m-287 203c-14-10-22-41-32-63-11-24-20-48-30-66-28 32-47 103-80 129-11 8-35 8-45 0-29-22 0-61 11-82 26-44 54-92 76-133-14-37-85-143 10-137 22 15 32 46 45 74 25 58 47 108 73 168 11 25 38 61 32 89-5 23-38 36-60 21z"/>
<glyph glyph-name="youko-with-circle" unicode="&#96;" d="M256 502c-136 0-246-110-246-246 0-136 110-246 246-246 136 0 246 110 246 246 0 136-110 246-246 246z m-10-233c-16-34-28-63-43-97-7-16-13-34-26-43-55-3-14 58-6 80-12 23-29 51-43 77-7 12-24 34-7 47 6 5 20 5 26 0 19-15 30-56 46-74 6 10 12 24 18 38 5 12 10 30 18 36 13 9 32 1 35-12 3-16-12-37-18-52z m127-84c-10 2-19 17-29 26-10 9-21 17-29 25-5 8-4-6-4-14l0-23c-1-9-5-13-13-15l-12 0c-8 1-12 7-13 15l0 109c0 20 38 20 38 0l0-39c7 4 10 9 15 14 4 3 7 7 11 11 6 6 12 12 18 18 8 16 37 15 40-4 3-28-34-38-41-53 10-14 34-24 42-40 7-14-2-34-23-30z"/>
<glyph glyph-name="youtube" unicode="&#123;" d="M256 453c-252 0-256-22-256-197 0-175 4-197 256-197 252 0 256 22 256 197 0 175-4 197-256 197z m82-206l-115-53c-10-5-18 0-18 11l0 102c0 11 8 16 18 11l115-53c10-5 10-13 0-18z"/>
<glyph glyph-name="youtube-with-circle" unicode="&#124;" d="M297 260l-57 27c-5 2-10 0-10-6l0-50c0-6 5-8 10-6l57 27c5 2 5 6 0 8z m-41 242c-136 0-246-110-246-246 0-136 110-246 246-246 136 0 246 110 246 246 0 136-110 246-246 246z m0-346c-126 0-128 11-128 100 0 88 2 100 128 100 126 0 128-12 128-100 0-89-2-100-128-100z"/>
<glyph glyph-name="add-to-list" unicode="&#125;" d="M497 282l-87 0 0 87c0 15-11 15-26 15-15 0-26 0-26-15l0-87-87 0c-15 0-15-11-15-26 0-15 0-26 15-26l87 0 0-87c0-15 11-15 26-15 15 0 26 0 26 15l0 87 87 0c15 0 15 11 15 26 0 15 0 26-15 26z m-308 0l-174 0c-15 0-15-11-15-26 0-15 0-26 15-26l174 0c16 0 16 11 16 26 0 15 0 26-16 26z m0-128l-174 0c-15 0-15-11-15-26 0-15 0-26 15-26l174 0c16 0 16 11 16 26 0 15 0 26-16 26z m0 256l-174 0c-15 0-15-11-15-26 0-15 0-26 15-26l174 0c16 0 16 11 16 26 0 15 0 26-16 26z"/>
<glyph glyph-name="add-user" unicode="&#126;" d="M409 22c1 55-56 87-110 111-55 23-72 43-72 85 0 25 17 17 24 63 3 20 18 1 20 45 0 17-8 22-8 22 0 0 5 25 6 45 2 21-10 66-59 80-8 8-14 22 12 36-57 3-70-27-101-49-26-20-33-50-32-67 2-20 6-45 6-45 0 0-8-5-8-22 3-44 17-25 20-45 8-46 24-38 24-63 0-42-5-57-59-80-55-24-72-61-72-116 0-16 0-22 0-22l410 0c0 0-1 6-1 22z m26 234l0 77-51 0 0-77-77 0 0-51 77 0 0-77 51 0 0 77 77 0 0 51z"/>
<glyph glyph-name="address-1" unicode="&#92;" d="M507 380l-61 47c-3 2-8 4-13 6-5 1-11 2-15 2l-175 0 21-128 154 0c4 0 10 1 15 3 5 1 10 3 13 6l61 47c3 2 5 5 5 8 0 3-2 6-5 9z m-289 106l-26 0c-7 0-13-5-13-12l0-90-85 0c-4 0-10-1-15-3-5-1-10-3-13-6l-61-46c-3-3-5-6-5-9 0-3 2-6 5-9l61-46c3-3 8-5 13-6 5-2 11-3 15-3l85 0 0-218c0-7 6-12 13-12l26 0c7 0 12 5 12 12l0 436c0 7-5 12-12 12z"/>
<glyph glyph-name="adjust-1" unicode="&#57344;" d="M486 277c-4 0-20 0-25 0-14 0-25-10-25-21 0-11 11-20 25-20 5 0 21 0 25 0 15 0 26 9 26 20 0 11-11 21-26 21z m-230 120c-78 0-141-63-141-141 0-78 63-141 141-141 78 0 141 63 141 141 0 78-63 141-141 141z m0-243c-57 0-102 45-102 102 0 57 45 102 102 102z m-179 102c0 11-12 21-26 21-5 0-21 0-25 0-15 0-26-10-26-21 0-11 11-20 26-20 4 0 20 0 25 0 14 0 26 9 26 20z m179 179c11 0 20 12 20 26 0 5 0 21 0 25 0 15-9 26-20 26-11 0-21-11-21-26 0-4 0-20 0-25 0-14 10-26 21-26z m0-358c-11 0-21-12-21-26 0-5 0-21 0-25 0-15 10-26 21-26 11 0 20 11 20 26 0 4 0 20 0 25 0 14-9 26-20 26z m189 339c10 10 11 24 3 32-8 8-22 7-32-3-3-3-16-16-18-18-10-10-12-25-4-33 8-8 23-6 33 4 2 2 15 15 18 18z m-360-302c-2-2-15-15-18-18-10-10-11-24-3-32 8-8 22-7 32 3 3 3 16 16 18 18 10 10 12 25 4 33-8 8-23 6-33-4z m11 331c-10 10-24 11-32 3-8-8-7-22 3-32 3-3 16-16 18-18 10-10 25-12 33-4 8 8 6 23-4 33-2 2-15 15-18 18z m302-360c2-2 15-15 18-18 10-10 24-11 32-3 8 8 7 22-3 32-3 3-16 16-18 18-10 10-25 12-33 4-8-8-6-23 4-33z"/>
<glyph glyph-name="air-1" unicode="&#57345;" d="M68 349c44 39 80 69 176 15 46-26 83-36 114-36 54 0 89 30 119 56 11 9 12 26 3 37-9 11-25 13-36 3-44-38-80-69-176-14-126 71-186 20-233-21-11-9-12-26-3-37 9-11 25-12 36-3z m376-55c-44-39-80-69-176-15-126 71-186 20-233-20-11-10-13-26-3-37 9-11 25-13 36-3 44 38 80 68 176 14 46-26 83-36 114-36 54 0 89 30 119 57 11 9 12 25 3 36-9 11-25 13-36 4z m0-131c-44-39-80-69-176-15-126 72-186 21-233-20-11-9-13-26-3-37 9-11 25-12 36-3 44 38 80 69 176 14 46-26 83-35 114-35 54 0 89 30 119 56 11 9 12 26 3 37-9 11-25 12-36 3z"/>
<glyph glyph-name="aircraft" unicode="&#57346;" d="M320 66c-10 28-46 122-61 161-29-18-60-36-90-49-10-33-28-95-37-103-16-14-22-13-24 7-2 20-12 83-12 83 0 0-56 31-73 40-17 9-17 15 1 25 11 6 75 2 109 0 22 24 49 48 77 68-31 28-107 94-129 114-20 16 2 20 2 20 10 2 31 3 41 0 65-19 165-53 189-61 9 7 19 14 30 21 120 86 150 67 156 59 6-9 13-44-107-129-11-8-21-15-30-21-1-25-4-132-8-200-1-11-9-31-14-40 0 0-11-19-20 5z"/>
<glyph glyph-name="aircraft-landing" unicode="&#57347;" d="M480 101c-2-6-21-25-154 23l-131 47c-45 16-109 42-135 57-17 10-21 33-21 33 0 0-4 75-7 94-2 19 3 22 21 13 11-6 47-66 63-92 38-10 73-19 89-24-6 44-19 126-23 152-4 24 14 14 14 14 8-5 25-17 31-26 39-60 94-169 98-177 23-8 58-19 79-27 56-20 79-78 76-87z"/>
<glyph glyph-name="aircraft-take-off" unicode="&#57348;" d="M509 347c3-7 3-33-125-93l-126-59c-44-21-107-48-135-56-20-5-39 9-39 9 0 0-56 50-71 61-15 12-14 18 5 24 12 4 80-13 109-20 35 20 66 38 81 46-36 26-103 76-124 91-21 14 0 19 0 19 10 3 30 6 40 4 70-14 186-53 195-56 21 11 55 28 75 38 53 25 111 1 115-8z"/>
<glyph glyph-name="align-bottom" unicode="&#57349;" d="M333 230l-51 0 0 205-52 0 0-205-51 0 77-76z m112-102l-378 0c-15 0-16-11-16-26 0-14 1-25 16-25l378 0c15 0 16 11 16 25 0 15-1 26-16 26z"/>
<glyph glyph-name="align-horizontal-middle" unicode="&#57350;" d="M205 256l-77 77 0-51-102 0 0-52 102 0 0-51z m179-77l0 51 102 0 0 52-102 0 0 51-77-77z m-128-128c14 0 26 1 26 16l0 378c0 15-12 16-26 16-14 0-26-1-26-16l0-378c0-15 12-16 26-16z"/>
<glyph glyph-name="align-left" unicode="&#57351;" d="M154 256l76-77 0 51 205 0 0 52-205 0 0 51z m-52 205c-14 0-25-1-25-16l0-378c0-15 11-16 25-16 15 0 26 1 26 16l0 378c0 15-11 16-26 16z"/>
<glyph glyph-name="arrow-long-down" unicode="&#57352;" d="M256 19l-141 135 90 0 0 332 102 0 0-332 90 0z"/>
<glyph glyph-name="arrow-left" unicode="&#57353;" d="M64 256l166 166 0-89 205 0 0-154-205 0 0-89z"/>
<glyph glyph-name="arrow-down" unicode="&#57354;" d="M256 64l-166 166 89 0 0 205 154 0 0-205 89 0z"/>
<glyph glyph-name="arrow-bold-up" unicode="&#57355;" d="M256 448l192-192-90 0 0-179-204 0 0 179-90 0z"/>
<glyph glyph-name="arrow-bold-right" unicode="&#57356;" d="M448 256l-192-192 0 90-179 0 0 204 179 0 0 90z"/>
<glyph glyph-name="arrow-bold-left" unicode="&#57357;" d="M256 448l0-90 179 0 0-204-179 0 0-90-192 192z"/>
<glyph glyph-name="arrow-bold-down" unicode="&#57358;" d="M64 256l90 0 0 179 204 0 0-179 90 0-192-192z"/>
<glyph glyph-name="area-graph" unicode="&#57359;" d="M512 461l0-410-504 0c-8 0-10 6-5 12l114 147c5 7 14 7 20 2l37-34c6-6 14-5 19 2l78 121c4 7 13 8 19 3l55-54c6-6 15-4 19 3l131 199c4 7 11 9 17 9z"/>
<glyph glyph-name="archive" unicode="&#57360;" d="M358 461l-204 0c0 0-25 0-25-26l254 0c0 26-25 26-25 26z m76-77c0 26-25 26-25 26l-306 0c0 0-25 0-25-26l0-26 356 0z m51-26c-15 16-15 16-15 16l0-41-428 0 0 41c0 0 0 0-15-16-15-15-26-19-20-51 6-32 35-207 39-230 5-26 32-26 32-26l356 0c0 0 27 0 32 26 4 23 33 198 39 230 6 32-5 36-20 51z m-127-153c0-14-11-26-25-26l-154 0c-14 0-25 12-25 26l0 51 25 0 0-51 154 0 0 51 25 0z"/>
<glyph glyph-name="align-vertical-middle" unicode="&#57361;" d="M256 205l-77-77 51 0 0-102 52 0 0 102 51 0z m77 179l-51 0 0 102-52 0 0-102-51 0 77-77z m128-128c0 14-1 26-16 26l-378 0c-15 0-16-12-16-26 0-14 1-26 16-26l378 0c15 0 16 12 16 26z"/>
<glyph glyph-name="align-top" unicode="&#57362;" d="M256 358l-77-76 51 0 0-205 52 0 0 205 51 0z m205 52c0 14-1 25-16 25l-378 0c-15 0-16-11-16-25 0-15 1-26 16-26l378 0c15 0 16 11 16 26z"/>
<glyph glyph-name="align-right" unicode="&#57363;" d="M282 333l0-51-205 0 0-52 205 0 0-51 76 77z m102 112l0-378c0-15 11-16 26-16 14 0 25 1 25 16l0 378c0 15-11 16-25 16-15 0-26-1-26-16z"/>
<glyph glyph-name="arrow-long-left" unicode="&#57364;" d="M19 256l135 141 0-90 332 0 0-102-332 0 0-90z"/>
<glyph glyph-name="arrow-long-right" unicode="&#57365;" d="M358 115l0 90-332 0 0 102 332 0 0 90 135-141z"/>
<glyph glyph-name="arrow-long-up" unicode="&#57366;" d="M256 493l141-135-90 0 0-332-102 0 0 332-90 0z"/>
<glyph glyph-name="arrow-right" unicode="&#57367;" d="M282 90l0 89-205 0 0 154 205 0 0 89 166-166z"/>
<glyph glyph-name="arrow-up" unicode="&#57368;" d="M256 448l166-166-89 0 0-205-154 0 0 205-89 0z"/>
<glyph glyph-name="arrow-with-circle-down" unicode="&#57369;" d="M256 502c-136 0-246-110-246-246 0-136 110-246 246-246 136 0 246 110 246 246 0 136-110 246-246 246z m0-441c-107 0-195 88-195 195 0 107 88 195 195 195 107 0 195-88 195-195 0-107-88-195-195-195z m51 297l-102 0 0-102-64 0 115-115 115 115-64 0z"/>
<glyph glyph-name="arrow-with-circle-left" unicode="&#57370;" d="M256 502c-136 0-246-110-246-246 0-136 110-246 246-246 136 0 246 110 246 246 0 136-110 246-246 246z m0-441c-107 0-195 88-195 195 0 107 88 195 195 195 107 0 195-88 195-195 0-107-88-195-195-195z m0 310l-115-115 115-115 0 64 102 0 0 102-102 0z"/>
<glyph glyph-name="arrow-with-circle-right" unicode="&#57371;" d="M256 502c-136 0-246-110-246-246 0-136 110-246 246-246 136 0 246 110 246 246 0 136-110 246-246 246z m0-441c-107 0-195 88-195 195 0 107 88 195 195 195 107 0 195-88 195-195 0-107-88-195-195-195z m0 246l-102 0 0-102 102 0 0-64 115 115-115 115z"/>
<glyph glyph-name="arrow-with-circle-up" unicode="&#57372;" d="M256 502c-136 0-246-110-246-246 0-136 110-246 246-246 136 0 246 110 246 246 0 136-110 246-246 246z m0-441c-107 0-195 88-195 195 0 107 88 195 195 195 107 0 195-88 195-195 0-107-88-195-195-195z m0 310l115-115-64 0 0-102-102 0 0 102-64 0z"/>
<glyph glyph-name="attachment" unicode="&#57373;" d="M143 5c-33 0-64 14-86 37-43 44-56 121 5 182 36 36 179 181 250 253 25 25 57 35 88 27 30-8 55-33 63-64 9-31-1-64-26-89l-239-242c-14-14-29-22-45-24-15-1-30 4-40 14-18 19-21 54 10 85l167 170c7 7 19 7 25 0 7-7 7-18 0-25l-167-170c-15-14-16-28-10-35 3-2 7-4 12-3 7 1 15 5 23 13l239 242c16 16 22 36 17 55-5 18-20 33-38 38-19 5-38-1-54-17-71-73-214-217-250-253-46-47-35-101-5-132 30-30 83-42 130 6l249 252c7 7 18 7 25 0 7-7 7-18 0-25l-249-253c-30-29-63-42-94-42z"/>
<glyph glyph-name="awareness-ribbon" unicode="&#57374;" d="M424 94c-19 27-73 98-117 156 18 26 32 47 39 57 39 67 22 110 0 146-21 36-25 57-90 57-65 0-69-21-90-57-22-37-39-79 0-146 7-10 21-31 39-57-44-58-98-129-117-156-5-7-4-17 0-28 3-8 16-45 19-53 4-10 17-17 28-2 6 8 66 90 121 167 55-77 115-159 121-167 11-15 24-8 28 2 3 8 16 45 19 53 4 11 5 21 0 28z m-177 237c-28 38-47 82-47 82 0 0 10 20 56 20 46 0 56-20 56-20 0 0-19-44-47-82-2-3-5-7-9-13-4 6-7 10-9 13z"/>
<glyph glyph-name="back" unicode="&#57375;" d="M486 333l0-154c0-28-23-51-51-51l-358 0 0 77 333 0 0 102-282 0 0-51-102 90 102 89 0-51 307 0c28 0 51-23 51-51z"/>
<glyph glyph-name="back-in-time" unicode="&#57376;" d="M282 466c-114 0-207-91-210-205l0-5-60 0 92-100 89 100-68 0 0 5c3 85 72 152 157 152 86 0 157-70 157-157 0-87-71-157-157-157-35 0-67 11-93 30l-36-38c35-28 80-45 129-45 115 0 209 94 209 210 0 116-94 210-209 210z m-26-82l0-128c0-3 1-7 2-10 1-3 3-6 6-8l81-82c8 5 15 10 21 16l-59 58 0 154z"/>
<glyph glyph-name="bowl" unicode="&#57377;" d="M434 321c-56-75-105-77-180-81l-3 0c-92 0-157 34-157 47 0 12 59 43 143 46l15 38c0 0-1 0-1 0-126 0-200-40-200-78l0-51c0-24 15-229 195-229 179 0 204 205 204 229l0 51c0 10-5 20-15 30z m16 122c-11 8-27 6-36-5l-92-123 60 149c5 13-1 28-14 33-13 6-28-1-34-14l-83-208c74 3 109 5 155 66 46 62 49 66 49 66 9 11 7 27-5 36z"/>
<glyph glyph-name="bookmarks" unicode="&#57378;" d="M384 512l-102 0c-15 0-26-11-26-26l1-5c28 0 51-23 51-51l0-291 25 30 77-92 0 409c0 15-12 26-26 26z m-153-77l-103 0c-14 0-26-11-26-25l0-410 77 92 77-92 0 410c0 14-11 25-25 25z"/>
<glyph glyph-name="bookmark" unicode="&#57379;" d="M358 461l0-435-102 102-102-102 0 435c0 14 15 26 25 25l154 0c17 1 25-11 25-25z"/>
<glyph glyph-name="book" unicode="&#57380;" d="M435 360l0-265c0-14-11-20-25-30-12-8-26 2-26 15 0 0 0 254 0 259 0 5-2 10-8 14-6 3-198 104-198 104-3 1-17 9-35 0-17-9-26-18-29-23l210-115c5-2 9-7 9-13l0-276c0-6-4-12-10-15-2-2-5-2-8-2-4 0-7 1-10 2-6 4-199 122-212 130-6 4-13 11-13 17l-3 263c0 5-1 14 7 27 18 28 80 59 112 43l230-117c6-3 9-8 9-18z"/>
<glyph glyph-name="block-1" unicode="&#57381;" d="M256 502c-136 0-246-110-246-246 0-136 110-246 246-246 136 0 246 110 246 246 0 136-110 246-246 246z m-195-246c0 107 88 195 195 195 47 0 90-17 123-45l-273-273c-28 33-45 76-45 123z m195-195c-47 0-90 17-123 45l273 273c28-33 45-76 45-123 0-107-88-195-195-195z"/>
<glyph glyph-name="blackboard" unicode="&#57382;" d="M65 0l89 0 36 95-76 25z m257 95l36-95 89 0-49 120z m139 366l-167 0-12 51-52 0-12-51-167 0c-14 0-25-12-25-26l0-281c0-15 11-26 25-26l410 0c14 0 25 11 25 26l0 281c0 14-11 26-25 26z"/>
<glyph glyph-name="bell" unicode="&#57383;" d="M375 294c-58 126-89 173-184 171-34 0-26 25-52 15-26-9-3-23-30-45-74-61-67-117-33-252 15-56-35-59-15-114 14-40 119-57 231-16 111 42 181 124 167 164-20 55-59 24-84 77z m-95-207c-100-37-181-15-185-5-6 16 32 72 146 114 113 42 177 26 184 8 3-11-46-80-145-117z m-32 90c-52-20-88-42-112-62 17-14 48-18 78-7 39 15 63 48 54 75 0 0 0 0-1 1-6-3-13-5-19-7z"/>
<glyph glyph-name="beamed-note" unicode="&#57384;" d="M435 486l0-332c0-32-33-77-96-77-32 0-57 17-57 48 0 40 37 65 76 65 11 0 20-1 26-3l0 188-179-33 0-240 0 0c0-31-34-76-96-76-32 0-58 16-58 48 0 40 37 65 77 65 11 0 19-2 26-3l0 299z"/>
<glyph glyph-name="battery" unicode="&#57385;" d="M394 256c0 71 33 111 59 111 9 0 33 0 33 0-17 27-31 43-93 43l-256 0c-96 0-137-88-137-154 0-66 41-154 137-154l256 0c62 0 76 16 93 43 0 0-8 0-33 0-26 0-59 40-59 111z m-69-46c-4-6-17 0-17 0l-76 34c0 0-7-17-12-29-5-12-9-26-31-11-22 16-92 83-92 83 0 0-9 8-4 15 4 6 17 0 17 0l76-34c0 0 7 17 12 29 5 12 9 26 31 10 21-15 91-83 91-83 0 0 9-7 5-14z m158 99l-19 0c-14 0-28-19-28-51 0-31 14-50 28-50l19 0c15 0 29 19 29 50 0 32-14 51-29 51z"/>
<glyph glyph-name="bar-graph" unicode="&#57386;" d="M435 486l-51 0c-14 0-26-11-26-25l0-435 103 0 0 435c0 14-12 25-26 25z m-153-153l-52 0c-14 0-25-12-25-26l0-281 102 0 0 281c0 14-11 26-25 26z m-154-154l-51 0c-14 0-26-11-26-25l0-128 103 0 0 128c0 14-12 25-26 25z"/>
<glyph glyph-name="box" unicode="&#57387;" d="M471 461l-430 0c-9 0-15-7-15-16l0-61 460 0 0 61c0 9-7 16-15 16z m-420-374c0-20 16-36 36-36l338 0c20 0 36 16 36 36l0 271-410 0z m128 220l154 0 0-51-154 0z"/>
<glyph glyph-name="briefcase" unicode="&#57388;" d="M230 256l52 0 0-51 230 0c0 0-4 114-5 150-1 34-14 55-51 55l-82 0c-13 24-27 49-31 57-9 16-11 19-30 19l-114 0c-19 0-21-3-30-19-4-8-18-33-31-57l-82 0c-37 0-49-21-51-55-1-34-5-150-5-150l230 0z m-34 181c6 11 8 14 21 14l78 0c13 0 15-3 21-14 2-4 8-15 15-27l-150 0c7 12 13 23 15 27z m86-309l-52 0 0 51-217 0c0 0 3-46 5-85 1-16 5-43 46-43l384 0c41 0 45 27 46 43 2 40 5 85 5 85l-217 0z"/>
<glyph glyph-name="browser" unicode="&#57389;" d="M461 461l-410 0c-28 0-51-23-51-51l0-308c0-28 23-51 51-51l410 0c28 0 51 23 51 51l0 308c0 28-23 51-51 51z m-346-45c11 0 19-9 19-19 0-11-8-19-19-19-10 0-19 8-19 19 0 10 9 19 19 19z m-70-19c0 10 8 19 19 19 11 0 19-9 19-19 0-11-8-19-19-19-11 0-19 8-19 19z m416-295l-410 0 0 231 410 0z m0 282l-307 0 0 26 307 0z"/>
<glyph glyph-name="brush" unicode="&#57390;" d="M71 165c-39-38-6-77-58-135-23-27 96-19 155 39 25 25 18 61-9 87-27 26-63 33-88 9z m429 330c-20 20-240-157-305-221-33-32-44-49-54-62-4-6 2-7 4-9 13-6 22-12 34-24 11-11 18-20 24-33 2-2 3-8 9-4 13 10 31 21 63 53 66 64 245 281 225 300z"/>
<glyph glyph-name="bucket" unicode="&#57391;" d="M282 486c-126 0-205-40-200-75 2-10 6-50 11-84-61-24-82-63-79-94 3-38 37-78 111-85 42-4 93 20 126 59-3 5-5 12-5 18 0 20 16 36 36 36 19 0 35-16 35-36 0-19-15-35-35-36-39-50-98-81-155-77 1-8 2-24 3-28 2-15 60-58 152-58 92 0 149 43 152 58 2 14 42 292 47 327 5 35-74 75-199 75z m-232-250c-2 16 11 38 49 55 5-35 11-72 16-105-41 8-63 30-65 50z m232 122c-92 0-158 34-158 47 0 12 66 46 158 45 92 1 157-33 157-45 0-13-65-47-157-47z"/>
<glyph glyph-name="bug" unicode="&#57392;" d="M256 486c-57 0-102-45-102-102l204 0c0 57-45 102-102 102z m230-230l-76 0 0 64c0 1-1 1-1 2l57 57c10 10 10 26 0 36-10 10-26 10-36 0l-57-57c-1 0-1 0-2 0l-230 0c-1 0-1 0-2 0l-57 57c-10 10-26 10-36 0-10-10-10-26 0-36l57-57c0-1-1-1-1-2l0-64-76 0c-15 0-26-11-26-26 0-14 11-25 26-25l76 0c0-20 4-39 11-57-1 0-2-1-3-2l-73-72c-10-10-10-27 0-37 10-10 27-10 37 0l66 67c23-26 55-44 90-50l0 253 52 0 0-253c35 6 67 24 90 50l66-67c10-10 27-10 37 0 10 10 10 27 0 37l-73 72c-1 1-2 2-3 2 7 18 11 37 11 57l76 0c15 0 26 11 26 25 0 15-11 26-26 26z"/>
<glyph glyph-name="cake" unicode="&#57393;" d="M245 357c50 0 67 36 47 73-22 44 49 81 14 81-34 0-96-36-107-81-9-34 7-73 46-73z m134-229l-12 10c-12 11-32 11-44 0l-11-10c-16-13-36-20-56-20-20 0-40 7-56 20l-11 10c-12 11-32 11-44 0l-12-10c-30-26-76-27-107-2l0-100c0-15 11-26 25-26l410 0c14 0 25 11 25 26l0 100c-31-25-77-24-107 2z m-123 205c-194 0-230-86-230-128l0-12 29-26c13-11 32-11 45 0l11 10c32 27 80 27 111 0l12-10c12-11 32-11 44 0l12 10c31 27 79 27 111 0l11-10c13-11 32-11 45 0l29 26 0 12c0 42-36 128-230 128z"/>
<glyph glyph-name="calculator" unicode="&#57394;" d="M374 486l-236 0c-19 0-36-16-36-35l0-390c0-19 17-35 36-35l236 0c19 0 36 16 36 35l0 390c0 19-17 35-36 35z m-195-281c18 0 32-12 32-26 0-14-14-25-32-25-17 0-32 11-32 25 0 14 15 26 32 26z m-32 51c0 14 15 26 32 26 18 0 32-12 32-26 0-14-14-26-32-26-17 0-32 12-32 26z m32-128c18 0 32-11 32-26 0-14-14-25-32-25-17 0-32 11-32 25 0 15 15 26 32 26z m77 77c18 0 32-12 32-26 0-14-14-25-32-25-18 0-32 11-32 25 0 14 14 26 32 26z m-32 51c0 14 14 26 32 26 18 0 32-12 32-26 0-14-14-26-32-26-18 0-32 12-32 26z m32-128c18 0 32-11 32-26 0-14-14-25-32-25-18 0-32 11-32 25 0 15 14 26 32 26z m77 77c17 0 32-12 32-26 0-14-15-25-32-25-18 0-32 11-32 25 0 14 14 26 32 26z m-32 51c0 14 14 26 32 26 17 0 32-12 32-26 0-14-15-26-32-26-18 0-32 12-32 26z m32-128c17 0 32-11 32-26 0-14-15-25-32-25-18 0-32 11-32 25 0 15 14 26 32 26z m-205 205l0 77 256 0 0-77z"/>
<glyph glyph-name="calendar" unicode="&#57395;" d="M435 435l-25 0 0-51-77 0 0 51-154 0 0-51-77 0 0 51-25 0c-28 0-51-23-51-51l0-307c0-28 23-51 51-51l358 0c28 0 51 23 51 51l0 307c0 28-23 51-51 51z m0-358l-358 0 0 205 358 0z m-269 409l-51 0 0-89 51 0z m231 0l-51 0 0-89 51 0z"/>
<glyph glyph-name="camera" unicode="&#57396;" d="M256 307c-42 0-77-34-77-77 0-42 35-76 77-76 42 0 77 34 77 76 0 43-35 77-77 77z m205 77l-62 0c-8 0-17 7-20 15l-16 47c-2 8-11 15-20 15l-174 0c-8 0-18-7-20-15l-16-47c-3-8-12-15-20-15l-62 0c-28 0-51-23-51-51l0-231c0-28 23-51 51-51l410 0c28 0 51 23 51 51l0 231c0 28-23 51-51 51z m-205-282c-71 0-128 58-128 128 0 71 57 128 128 128 71 0 128-57 128-128 0-70-57-128-128-128z m192 200c-10 0-18 8-18 18 0 10 8 18 18 18 10 0 18-8 18-18 0-10-8-18-18-18z"/>
<glyph glyph-name="ccw" unicode="&#57397;" d="M18 256l60 0 0 5c3 114 96 205 209 205 116 0 210-94 210-210 0-116-94-210-210-210-48 0-93 17-128 45l36 38c26-19 58-30 92-30 87 0 157 70 157 157 0 87-70 157-157 157-85 0-154-67-156-152l0-5 68 0-89-100z"/>
<glyph glyph-name="chat" unicode="&#57398;" d="M148 200l0 158-97 0c-28 0-51-23-51-51l0-153c0-29 23-52 51-52l26 0 0-76 77 76 128 0c28 0 51 23 51 52l0 46c-2 0-4 0-5 0l-180 0z m313 286l-231 0c-28 0-51-23-51-51l0-205 179 0 77-76 0 76 26 0c28 0 51 23 51 52l0 153c0 28-23 51-51 51z"/>
<glyph glyph-name="check" unicode="&#57399;" d="M212 77c-11 0-21 5-28 14l-92 121c-11 16-8 38 7 50 16 12 38 9 50-7l61-80 151 243c10 17 32 22 49 12 17-11 22-33 11-49l-178-287c-7-10-17-17-29-17-1 0-1 0-2 0z"/>
<glyph glyph-name="chevron-with-circle-down" unicode="&#57400;" d="M320 289l-64-59-64 59c-5 5-13 5-19 0-5-5-5-13 0-18l74-72c5-5 13-5 18 0l73 72c6 5 6 13 0 18-5 5-13 5-18 0z m-64 213c-136 0-246-110-246-246 0-136 110-246 246-246 136 0 246 110 246 246 0 136-110 246-246 246z m0-460c-118 0-214 96-214 214 0 118 96 214 214 214 118 0 214-96 214-214 0-118-96-214-214-214z"/>
<glyph glyph-name="chevron-up" unicode="&#57401;" d="M396 193c-11-11-26-12-40 0l-100 96-100-96c-14-12-29-11-40 0-11 12-11 31 0 42 10 10 120 115 120 115 5 6 13 8 20 8 7 0 15-2 20-8 0 0 110-105 120-115 11-11 12-30 0-42z"/>
<glyph glyph-name="chevron-thin-up" unicode="&#57402;" d="M66 156c-7-6-18-6-25 0-7 7-7 18 0 25l202 201c7 7 19 7 26 0l202-201c7-7 7-18 0-25-7-6-18-6-25 0l-190 183z"/>
<glyph glyph-name="chevron-thin-right" unicode="&#57403;" d="M339 256l-183 190c-6 7-6 18 0 25 7 7 18 7 25 0l201-202c7-7 7-19 0-25l-201-203c-7-7-18-7-25 0-6 7-6 18 0 25z"/>
<glyph glyph-name="chevron-thin-left" unicode="&#57404;" d="M356 66c6-7 6-18 0-25-7-7-18-7-25 0l-201 202c-7 7-7 19 0 26l201 202c7 7 18 7 25 0 6-7 6-18 0-25l-183-190z"/>
<glyph glyph-name="chevron-thin-down" unicode="&#57405;" d="M446 356c7 6 18 6 25 0 7-7 7-18 0-25l-202-201c-7-7-19-7-26 0l-202 201c-7 7-7 18 0 25 7 6 18 6 25 0l190-183z"/>
<glyph glyph-name="chevron-small-up" unicode="&#57406;" d="M169 201c-7-7-19-7-26 0-6 7-6 18 0 25l101 98c6 7 18 7 25 0l100-98c7-7 7-18 0-25-7-7-19-7-25 0l-88 81z"/>
<glyph glyph-name="chevron-small-right" unicode="&#57407;" d="M282 256l-81 88c-7 6-7 18 0 25 7 6 18 6 25 0l98-100c7-7 7-19 0-26l-98-100c-7-7-18-6-25 0-7 7-7 19 0 25z"/>
<glyph glyph-name="chevron-small-left" unicode="&#57408;" d="M311 168c7-6 7-18 0-25-7-6-18-7-25 0l-98 101c-7 6-7 18 0 25l98 100c7 7 18 7 25 0 7-7 7-19 0-25l-81-88z"/>
<glyph glyph-name="chevron-small-down" unicode="&#57409;" d="M344 311c6 7 18 7 25 0 6-7 7-18 0-25l-101-98c-6-7-18-7-25 0l-100 98c-7 7-7 18 0 25 7 7 19 7 25 0l88-81z"/>
<glyph glyph-name="chevron-right" unicode="&#57410;" d="M235 396c10-10 115-120 115-120 6-5 8-13 8-20 0-7-2-15-8-20 0 0-105-110-115-120-11-11-30-12-42 0-11 11-12 26 0 40l96 100-96 100c-12 14-11 29 0 40 12 12 31 11 42 0z"/>
<glyph glyph-name="chevron-left" unicode="&#57411;" d="M319 396c11-11 12-26 0-40l-96-100 96-100c12-14 11-29 0-40-12-12-31-11-42 0-10 10-115 120-115 120-6 5-8 13-8 20 0 7 2 15 8 20 0 0 105 110 115 120 11 11 30 12 42 0z"/>
<glyph glyph-name="chevron-down" unicode="&#57412;" d="M116 319c11 11 26 12 40 0l100-96 100 96c14 12 29 11 40 0 12-12 11-31 0-42-10-10-120-115-120-115-5-6-13-8-20-8-7 0-15 2-20 8 0 0-110 105-120 115-11 11-12 30 0 42z"/>
<glyph glyph-name="chevron-with-circle-left" unicode="&#57413;" d="M289 339c-5 5-13 5-18 0l-72-74c-5-5-5-13 0-18l72-73c5-6 13-6 18 0 5 5 5 13 0 18l-59 64 59 64c5 5 5 13 0 19z m-33 163c-136 0-246-110-246-246 0-136 110-246 246-246 136 0 246 110 246 246 0 136-110 246-246 246z m0-460c-118 0-214 96-214 214 0 118 96 214 214 214 118 0 214-96 214-214 0-118-96-214-214-214z"/>
<glyph glyph-name="chevron-with-circle-right" unicode="&#57414;" d="M282 256l-59 64c-5 5-5 13 0 19 5 5 13 5 18 0l72-74c5-5 5-13 0-18l-72-73c-5-6-13-6-18 0-5 5-5 13 0 18z m-26 246c136 0 246-110 246-246 0-136-110-246-246-246-136 0-246 110-246 246 0 136 110 246 246 246z m0-460c118 0 214 96 214 214 0 118-96 214-214 214-118 0-214-96-214-214 0-118 96-214 214-214z"/>
<glyph glyph-name="chevron-with-circle-up" unicode="&#57415;" d="M265 313c-5 5-13 5-18 0l-73-72c-6-5-6-13 0-18 5-5 13-5 18 0l64 59 64-59c5-5 13-5 19 0 5 5 5 13 0 18z m-9 189c-136 0-246-110-246-246 0-136 110-246 246-246 136 0 246 110 246 246 0 136-110 246-246 246z m0-460c-118 0-214 96-214 214 0 118 96 214 214 214 118 0 214-96 214-214 0-118-96-214-214-214z"/>
<glyph glyph-name="circle" unicode="&#57416;" d="M256 502c-136 0-246-110-246-246 0-136 110-246 246-246 136 0 246 110 246 246 0 136-110 246-246 246z m0-441c-107 0-195 88-195 195 0 107 88 195 195 195 107 0 195-88 195-195 0-107-88-195-195-195z"/>
<glyph glyph-name="circle-with-cross" unicode="&#57417;" d="M256 471c-119 0-215-96-215-215 0-119 96-215 215-215 119 0 215 96 215 215 0 119-96 215-215 215z m123-293l-45-45-78 79-78-79-45 45 79 78-79 78 45 45 78-79 78 79 45-45-79-78z"/>
<glyph glyph-name="circle-with-minus" unicode="&#57418;" d="M256 471c-119 0-215-96-215-215 0-119 96-215 215-215 119 0 215 96 215 215 0 119-96 215-215 215z m128-241l-256 0 0 52 256 0z"/>
<glyph glyph-name="circle-with-plus" unicode="&#57419;" d="M256 471c-119 0-215-96-215-215 0-119 96-215 215-215 119 0 215 96 215 215 0 119-96 215-215 215z m128-241l-102 0 0-102-52 0 0 102-102 0 0 52 102 0 0 102 52 0 0-102 102 0z"/>
<glyph glyph-name="circular-graph" unicode="&#57420;" d="M450 272l51 0c-1 27-7 53-17 76l-45-25c6-16 10-33 11-51z m-89 207c-24 11-51 19-79 22l0-52c19-2 37-7 53-15z m55-111l44 26c-15 22-34 42-55 58l-26-44c14-12 26-25 37-40z m-160-306c-107 0-194 87-194 195 0 99 73 180 169 192l0 52c-124-13-220-117-220-244 0-136 110-246 245-246 124 0 226 91 243 210l-52 0c-16-90-95-159-191-159z"/>
<glyph glyph-name="clapperboard" unicode="&#57421;" d="M512 435l0-358c0-14-11-26-26-26l-460 0c-15 0-26 12-26 26l0 358c0 14 11 26 26 26l25 0 77-77 64 0-77 77 77 0 77-77 64 0-77 77 77 0 77-77 64 0-77 77 89 0c15 0 26-12 26-26z"/>
<glyph glyph-name="classic-computer" unicode="&#57422;" d="M410 512l-308 0c-28 0-51-23-51-51l0-384c0-14 12-26 26-26l0-51 358 0 0 51c14 0 26 12 26 26l0 384c0 28-23 51-51 51z m-52-384l-102 0 0 26 102 0z m26 102l-256 0 0 205 256 0z"/>
<glyph glyph-name="clipboard" unicode="&#57423;" d="M399 461l-30-77-226 0-30 77c-20 0-36-16-36-36l0-389c0-20 16-36 36-36l286 0c20 0 36 16 36 36l0 389c0 20-16 36-36 36z m-51-51l23 51-56 0-18 51-82 0-18-51-56 0 23-51z"/>
<glyph glyph-name="clock" unicode="&#57424;" d="M256 502c-136 0-246-110-246-246 0-136 110-246 246-246 136 0 246 110 246 246 0 136-110 246-246 246z m0-441c-107 0-195 88-195 195 0 107 88 195 195 195 107 0 195-88 195-195 0-107-88-195-195-195z m26 212l0 137-52 0 0-160-90-53 25-44 106 61c6 3 11 12 11 19l0 4 108 107c-5 7-10 13-16 20z"/>
<glyph glyph-name="cloud" unicode="&#57425;" d="M512 222c0-66-55-120-123-120l-296 0c-52 0-93 41-93 91 0 50 41 90 93 90 3 0 7 0 11 0-1 6-2 12-2 19 0 74 61 133 136 133 62 0 114-40 131-95 7 1 13 2 20 2 68 0 123-54 123-120z"/>
<glyph glyph-name="controller-volume" unicode="&#57426;" d="M486 159c0-17-13-31-30-31l-417 0c-22 0-25 9-6 21l418 232c20 11 35 3 35-20z"/>
<glyph glyph-name="controller-stop" unicode="&#57427;" d="M410 384l0-251c0-17-14-31-31-31l-251 0c-14 0-26 12-26 26l0 251c0 17 14 31 31 31l251 0c14 0 26-12 26-26z"/>
<glyph glyph-name="controller-record" unicode="&#57428;" d="M256 435c-99 0-179-80-179-179 0-99 80-179 179-179 99 0 179 80 179 179 0 99-80 179-179 179z"/>
<glyph glyph-name="controller-play" unicode="&#57429;" d="M384 256c0-8-8-13-8-13l-219-136c-16-10-29-3-29 17l0 264c0 20 13 27 29 17l219-136c0 0 8-5 8-13z"/>
<glyph glyph-name="controller-paus" unicode="&#57430;" d="M384 435l-51 0c-14 0-26-1-26-15l0-328c0-14 12-15 26-15l51 0c14 0 26 1 26 15l0 328c0 14-12 15-26 15z m-205 0l-51 0c-14 0-26-1-26-15l0-328c0-14 12-15 26-15l51 0c14 0 26 1 26 15l0 328c0 14-12 15-26 15z"/>
<glyph glyph-name="controller-next" unicode="&#57431;" d="M313 268l-184 127c-15 10-27 3-27-16l0-246c0-19 12-26 27-16l184 127c0 0 8 5 8 12 0 7-8 12-8 12z m45 142l26 0c14 0 26-2 26-16l0-276c0-14-12-16-26-16l-26 0c-14 0-25 2-25 16l0 276c0 14 11 16 25 16z"/>
<glyph glyph-name="controller-jump-to-start" unicode="&#57432;" d="M383 395l-184-127c0 0-8-5-8-12 0-7 8-12 8-12l184-127c15-10 27-3 27 16l0 246c0 19-12 26-27 16z m-229 15l-26 0c-14 0-26-2-26-16l0-276c0-14 12-16 26-16l26 0c14 0 25 2 25 16l0 276c0 14-11 16-25 16z"/>
<glyph glyph-name="controller-fast-forward" unicode="&#57433;" d="M237 268l-185 127c-14 10-26 3-26-16l0-246c0-19 12-26 26-16l185 127c0 0 7 5 7 12 0 7-7 12-7 12z m239-12c0-7-7-12-7-12l-184-127c-15-10-27-3-27 16l0 246c0 19 12 26 27 16l184-127c0 0 7-5 7-12z"/>
<glyph glyph-name="controller-fast-backward" unicode="&#57434;" d="M460 395l-185-127c0 0-7-5-7-12 0-7 7-12 7-12l185-127c14-10 26-3 26 16l0 246c0 19-12 26-26 16z m-233 0l-184-127c0 0-7-5-7-12 0-7 7-12 7-12l184-127c15-10 27-3 27 16l0 246c0 19-12 26-27 16z"/>
<glyph glyph-name="compass" unicode="&#57435;" d="M140 140c0 0 117 16 166 66 50 49 66 166 66 166 0 0-117-16-166-66-50-49-66-166-66-166z m91 141c21 21 61 36 95 45-9-34-24-74-45-95-14-14-36-14-50 0-14 14-14 36 0 50z m25 221c-136 0-246-110-246-246 0-136 110-246 246-246 136 0 246 110 246 246 0 136-110 246-246 246z m0-441c-107 0-195 88-195 195 0 107 88 195 195 195 107 0 195-88 195-195 0-107-88-195-195-195z"/>
<glyph glyph-name="colours" unicode="&#57436;" d="M81 358c-10 9-27 8-36-3l-32-39c-9-11-8-27 3-36l202-168-98 214z m99 85l-47-21c-13-6-19-21-13-34l109-239 6 235-22 47c-5 12-21 18-33 12z m184-5c0 14-11 26-25 26l-51 1c-14 1-26-10-27-25l-6-262 108 209z m127-24l-45 23c-13 7-28 2-35-11l-163-319c-7-12-2-28 11-34l45-24c13-6 28-1 35 11l163 319c7 13 2 28-11 35z m-163-319c-7-13-22-18-35-11-12 6-17 22-11 34 7 13 22 18 35 11 12-6 17-22 11-34z"/>
<glyph glyph-name="cog" unicode="&#57437;" d="M430 256c0 27 16 48 41 63-4 14-10 29-18 42-28-7-50 4-69 23-19 19-25 41-18 69-13 8-27 14-42 18-15-25-41-41-68-41-27 0-53 16-68 41-15-4-29-10-42-18 7-28 1-50-18-69-19-19-41-30-69-23-8-13-14-28-18-42 25-15 41-36 41-63 0-27-16-53-41-68 4-15 10-29 18-42 28 7 50 1 69-18 19-19 25-41 18-69 13-8 27-14 42-18 15 25 41 41 68 41 27 0 53-16 68-41 15 4 29 10 42 18-7 28-1 50 18 69 19 19 41 30 69 23 8 13 14 27 18 42-25 15-41 36-41 63z m-174-93c-52 0-94 41-94 93 0 52 42 94 94 94 52 0 93-42 93-94 0-52-41-93-93-93z"/>
<glyph glyph-name="code" unicode="&#57438;" d="M146 134c-6 0-12 3-17 7l-129 115 137 122c10 9 26 8 36-3 9-10 8-26-2-36l-94-83 86-77c11-9 12-25 3-36-6-6-13-9-20-9z m229 0l137 122-129 115c-11 10-27 9-37-2-9-11-8-27 3-36l86-77-94-83c-10-10-11-26-2-36 5-6 12-9 19-9 6 0 13 2 17 6z m-119-36l51 307c2 14-7 28-21 30-14 2-27-7-30-21l-51-307c-2-14 7-28 21-30 2 0 3 0 4 0 13 0 24 9 26 21z"/>
<glyph glyph-name="copy" unicode="&#57439;" d="M282 512l-205 0c-14 0-26-11-26-26l0-307c0-14 12-25 26-25l128 0 0-52 51 0 0 52-51 0 0 51 51 0 0 51-51 0 0-51-103 0 0 256 154 0 0-103 51 0 0 128c0 15-11 26-25 26z m-77-179l0-26 51 0 0 51-26 0c-14 0-25-11-25-25z m102-333l51 0 0 51-51 0z m0 307l51 0 0 51-51 0z m-102-281c0-15 11-26 25-26l26 0 0 51-51 0z m230 332l-25 0 0-51 51 0 0 26c0 14-12 25-26 25z m-25-358l25 0c14 0 26 11 26 26l0 25-51 0z m0 205l51 0 0 51-51 0z m0-103l51 0 0 52-51 0z"/>
<glyph glyph-name="creative-commons" unicode="&#57440;" d="M225 236l28-16c-5-10-15-20-25-28-10-8-23-10-36-10-20 0-38 5-51 20-13 13-18 31-18 54 0 23 8 41 20 54 11 13 29 20 49 20 28 0 51-10 61-33l-30-18c-5 8-8 13-13 15-5 3-10 3-13 3-20 0-31-13-31-41 0-13 3-23 8-31 5-7 13-10 23-10 13 0 23 5 28 21z m108-21c-10 0-18 3-23 10-5 8-8 18-8 31 0 28 10 41 31 41 5 0 10-3 13-5 5-3 10-8 12-16l31 16c-13 23-33 33-61 33-21 0-36-8-49-20-13-13-20-31-20-54 0-23 5-41 17-54 13-13 31-20 52-20 12 0 25 2 36 10 10 8 20 15 25 28l-31 15c-2-10-12-15-25-15z m169 41c0-69-23-125-69-172-49-48-108-74-177-74-67 0-125 23-174 72-49 49-72 105-72 174 0 67 23 125 72 174 49 49 105 72 174 72 69 0 128-23 174-72 49-46 72-105 72-174z m-44 0c0 56-20 102-59 143-41 39-87 59-143 59-56 0-102-20-141-59-41-41-61-89-61-143 0-54 20-102 59-141 41-41 87-59 143-59 54 0 102 21 143 62 39 36 59 82 59 138z"/>
<glyph glyph-name="creative-commons-attribution" unicode="&#57441;" d="M323 317l0-99-29 0 0-118-76 0 0 118-29 0 0 99c0 8 8 16 16 16l102 0c8 0 16-8 16-16z m-67 29c18 0 33 15 33 33 0 18-15 33-33 33-18 0-33-15-33-33 0-18 15-33 33-33z m246-90c0-69-23-125-69-172-49-48-108-74-177-74-67 0-125 23-174 72-49 49-72 105-72 174 0 67 23 125 72 174 49 49 105 72 174 72 69 0 128-23 174-72 49-46 72-105 72-174z m-44 0c0 56-20 102-59 143-41 39-87 59-143 59-56 0-102-20-141-59-41-41-61-89-61-143 0-54 20-102 59-141 38-38 87-59 143-59 54 0 102 21 143 62 39 36 59 82 59 138z"/>
<glyph glyph-name="creative-commons-noderivs" unicode="&#57442;" d="M430 430c-46 49-105 72-174 72-69 0-125-23-174-72-49-49-72-107-72-174 0-67 23-125 72-174 49-49 105-72 174-72 67 0 125 26 177 74 46 47 69 105 69 172 0 69-23 128-72 174z m-31-315c-41-41-89-61-143-61-54 0-102 20-143 59-39 41-59 89-59 143 0 54 20 102 61 143 39 39 85 59 141 59 56 0 102-20 143-59 39-38 59-87 59-143 0-56-20-102-59-141z m-230 121l179 0 0-44-179 0z m0 79l179 0 0-44-179 0z"/>
<glyph glyph-name="creative-commons-noncommercial-eu" unicode="&#57443;" d="M430 430c-46 49-105 72-174 72-69 0-125-23-174-72-49-49-72-107-72-174 0-67 23-125 72-174 49-49 105-72 174-72 67 0 125 26 177 74 46 47 69 105 69 172 0 69-23 128-72 174z m-31-315c-41-41-89-61-143-61-54 0-102 20-143 59-39 41-59 89-59 143 0 23 2 46 10 67l64-29-3 0 0-28 23 0c0-5 0-7 0-13l0-7-23 0 0-28 26 0c3-23 13-39 23-54 23-31 59-46 100-46 26 0 51 7 64 15l-10 46c-8-5-28-10-46-10-21 0-41 5-54 20-5 8-10 16-13 29l92 0 128-57c-10-18-23-33-36-46z m-161 128z m79 21l3 0 0 28-69 0-28 13c2 5 5 10 7 15 13 15 31 23 52 23 18 0 35-5 46-10l12 46c-15 8-35 13-61 13-41 0-74-16-97-44-5-5-10-13-13-18l-82 34c8 12 18 23 28 33 39 41 85 61 141 61 56 0 102-20 143-59 39-38 59-87 59-143 0-18-2-36-5-51z"/>
<glyph glyph-name="creative-commons-noncommercial-us" unicode="&#57444;" d="M430 430c-46 49-105 72-174 72-69 0-125-23-174-72-49-49-72-107-72-174 0-67 23-125 72-174 49-49 105-72 174-72 67 0 125 26 177 74 46 47 69 105 69 172 0 67-23 128-72 174z m-31-315c-41-41-89-61-143-61-54 0-102 20-143 59-39 41-59 89-59 143 0 23 2 46 10 67l125-57c13-5 26-10 39-18l28-12 23-11c5-2 8-7 8-15 0-18-16-26-31-26-23 0-38 8-54 23l-33-33c20-18 46-28 74-28l0-38 28 0 0 38c34 2 62 23 67 54l92-41c-5-16-18-31-31-44z m-74 144c-13 5-25 10-38 17l-21 11-33 13c0 2-3 5-3 7 0 16 18 18 31 18 15 0 31-5 41-15l33 33c-20 15-43 21-61 23l0 38-28 0 0-38c-31 0-57-15-64-43l-95 43c8 13 18 23 28 33 39 39 85 59 141 59 56 0 102-20 143-59 39-38 59-87 59-143 0-18-2-36-5-54z"/>
<glyph glyph-name="creative-commons-public-domain" unicode="&#57445;" d="M430 430c-46 49-105 72-174 72-69 0-125-23-174-72-49-49-72-107-72-174 0-67 23-125 72-174 49-49 105-72 174-72 67 0 125 26 177 74 46 47 69 105 69 172 0 69-23 128-72 174z m-31-315c-41-41-89-61-143-61-54 0-102 20-143 59-39 41-59 89-59 143 0 54 20 102 61 143 39 39 85 59 141 59 56 0 102-20 143-59 39-38 59-87 59-143 0-56-20-102-59-141z m-192 210l-66 0 0-136 33 0 0 44 26 0c46 0 56 28 56 46 3 28-10 46-49 46z m-5-66l-28 0 0 41 28 0c16 0 23-8 23-21 0-10-7-20-23-20z m118 66l-54 0 0-136 54 0c41 0 69 21 69 70 0 46-28 66-69 66z m0-107l-20 0 0 79 20 0c26 0 36-18 36-38 0-23-10-41-36-41z"/>
<glyph glyph-name="creative-commons-remix" unicode="&#57446;" d="M430 430c-46 49-105 72-174 72-69 0-125-23-174-72-49-49-72-107-72-174 0-67 23-125 72-174 49-49 105-72 174-72 67 0 125 26 177 74 46 47 69 105 69 172 0 69-23 128-72 174z m-31-315c-41-41-89-61-143-61-54 0-102 20-143 59-39 41-59 89-59 143 0 54 20 102 61 143 39 39 85 59 141 59 56 0 102-20 143-59 39-38 59-87 59-143 0-56-20-102-59-141z m18 136l-48 20 0 62-151 61-67-28 0-69-59-26 0-64 64-28 64 26 3 0 128-54 5 0 59 26 5 2 0 69z m-69-79l-112 46 0 43 112-46z m5 56l-36 15 41 16 36-16z m54-39l-43-17 0 43 43 18z"/>
<glyph glyph-name="creative-commons-share" unicode="&#57447;" d="M430 430c-46 49-105 72-174 72-69 0-125-23-174-72-49-49-72-107-72-174 0-67 23-125 72-174 49-49 105-72 174-72 67 0 125 26 177 74 46 47 69 105 69 172 0 69-23 128-72 174z m-31-315c-41-41-89-61-143-61-54 0-102 20-143 59-39 41-59 89-59 143 0 54 20 102 61 143 39 39 85 59 141 59 56 0 102-20 143-59 39-38 59-87 59-143 0-56-20-102-59-141z m-43 213l-54 0 0 51c0 8-5 13-13 13l-133 0c-8 0-13-8-13-13l0-182c0-8 5-13 13-13l54 0 0-53c0-8 5-13 13-13l133 0c8 0 13 5 13 13l0 181c2 8-5 16-13 16z m-136 0c-8 0-13-8-13-13l0-100-38 0 0 154 107 0 0-41-56 0c3 0 3 0 0 0z m123-182l-107 0 0 154 107 0z"/>
<glyph glyph-name="creative-commons-sharealike" unicode="&#57448;" d="M430 430c-46 49-105 72-174 72-69 0-125-23-174-72-49-49-72-107-72-174 0-67 23-125 72-174 49-49 105-72 174-72 67 0 125 26 177 74 46 47 69 105 69 172 0 67-23 128-72 174z m-31-315c-41-41-89-61-143-61-54 0-102 20-143 59-39 41-59 89-59 143 0 54 20 102 61 143 39 39 85 59 141 59 56 0 102-20 143-59 39-38 59-87 59-143 0-56-20-102-59-141z m-18 138c0-74-51-130-128-130-53 0-99 33-107 97l61 0c3-33 23-43 54-43 36 0 59 33 59 82 0 51-20 79-56 79-28 0-52-10-57-44l18 0-48-48-49 46 20 0c11 61 54 95 108 95 77 0 125-59 125-134z"/>
<glyph glyph-name="credit" unicode="&#57449;" d="M282 83l0-57-52 0 0 54c-43 3-78 16-108 46l44 45c22-22 52-30 84-30 40 0 61 16 61 44 0 12-3 23-10 30-7 6-15 9-31 12l-42 6c-30 4-52 14-68 29-16 17-24 40-24 69 0 56 35 96 94 105l0 50 52 0 0-49c35-4 63-16 87-40l-43-43c-22 21-48 24-71 24-36 0-54-20-54-44 0-9 3-18 10-25 7-7 18-12 32-14l41-6c32-5 52-14 67-27 19-18 27-44 27-75 0-58-40-94-96-104z"/>
<glyph glyph-name="credit-card" unicode="&#57450;" d="M461 435l-410 0c-28 0-51-23-51-51l0-256c0-28 23-51 51-51l410 0c28 0 51 23 51 51l0 256c0 28-23 51-51 51z m0-307l-410 0 0 154 410 0z m0 230l-410 0 0 26 410 0z m-359-130l0-16 16 0 0 16z m93-31l0-15 30 0 0 15 16 0 0 16 15 0 0 15-31 0 0-15-15 0 0-16z m61-15l0 15-15 0 0-15z m-77 0l0 15-31 0 0-15z m16 31l15 0 0 15-31 0 0-31 16 0z m-62-16l15 0 0 16 16 0 0 15-31 0 0-15-15 0 0-16-16 0 0-15 31 0z"/>
<glyph glyph-name="dots-three-horizontal" unicode="&#57451;" d="M256 312c-31 0-56-25-56-56 0-31 25-56 56-56 31 0 56 25 56 56 0 31-25 56-56 56z m-179 0c-31 0-57-25-57-56 0-31 26-56 57-56 31 0 56 25 56 56 0 31-25 56-56 56z m358 0c-31 0-56-25-56-56 0-31 25-56 56-56 31 0 57 25 57 56 0 31-26 56-57 56z"/>
<glyph glyph-name="dot-single" unicode="&#57452;" d="M200 256c0-31 25-56 56-56 31 0 56 25 56 56 0 31-25 56-56 56-31 0-56-25-56-56z"/>
<glyph glyph-name="documents" unicode="&#57453;" d="M497 322l-191 51-33 125c-3 10-14 16-25 13l-233-62c-11-3-17-14-14-24l82-309c3-10 14-16 25-13l93 25-13-47c-3-11 4-22 15-25l207-55c11-3 23 3 25 13l76 284c3 10-3 21-14 24z m-455 97l200 54 74-277-200-54z m359-380l-174 48 14 51 100 27c10 3 17 14 14 24l-38 144 152-41z"/>
<glyph glyph-name="document-landscape" unicode="&#57454;" d="M486 435l-460 0c-15 0-26-11-26-25l0-308c0-14 11-25 26-25l460 0c15 0 26 11 26 25l0 308c0 14-11 25-26 25z m-25-307l-410 0 0 256 410 0z"/>
<glyph glyph-name="document" unicode="&#57455;" d="M410 486l-308 0c-14 0-25-11-25-25l0-410c0-14 11-25 25-25l308 0c14 0 25 11 25 25l0 410c0 14-11 25-25 25z m-26-409l-256 0 0 358 256 0z"/>
<glyph glyph-name="direction" unicode="&#57456;" d="M462 462c-15 15-29 1-78-22-129-63-356-190-356-190l195-27 27-195c0 0 127 227 190 356 23 49 37 63 22 78z m-46-50l-142-262-14 119z"/>
<glyph glyph-name="dial-pad" unicode="&#57457;" d="M154 512l-52 0c-14 0-25-11-25-26l0-51c0-14 11-25 25-25l52 0c14 0 25 11 25 25l0 51c0 15-11 26-25 26z m128 0l-52 0c-14 0-25-11-25-26l0-51c0-14 11-25 25-25l52 0c14 0 25 11 25 25l0 51c0 15-11 26-25 26z m128 0l-52 0c-14 0-25-11-25-26l0-51c0-14 11-25 25-25l52 0c14 0 25 11 25 25l0 51c0 15-11 26-25 26z m-256-128l-52 0c-14 0-25-11-25-26l0-51c0-14 11-25 25-25l52 0c14 0 25 11 25 25l0 51c0 15-11 26-25 26z m128 0l-52 0c-14 0-25-11-25-26l0-51c0-14 11-25 25-25l52 0c14 0 25 11 25 25l0 51c0 15-11 26-25 26z m128 0l-52 0c-14 0-25-11-25-26l0-51c0-14 11-25 25-25l52 0c14 0 25 11 25 25l0 51c0 15-11 26-25 26z m-256-128l-52 0c-14 0-25-11-25-26l0-51c0-14 11-25 25-25l52 0c14 0 25 11 25 25l0 51c0 15-11 26-25 26z m128 0l-52 0c-14 0-25-11-25-26l0-51c0-14 11-25 25-25l52 0c14 0 25 11 25 25l0 51c0 15-11 26-25 26z m0-154l-52 0c-14 0-25-11-25-25l0-51c0-15 11-26 25-26l52 0c14 0 25 11 25 26l0 51c0 14-11 25-25 25z m128 154l-52 0c-14 0-25-11-25-26l0-51c0-14 11-25 25-25l52 0c14 0 25 11 25 25l0 51c0 15-11 26-25 26z"/>
<glyph glyph-name="database" unicode="&#57458;" d="M428 188c-21-35-90-60-172-60-82 0-151 25-172 60-5 8-7 4-7 0 0-3 0-51 0-51 0-50 80-101 179-101 99 0 179 51 179 101 0 0 0 47 0 51 0 4-2 8-7 0z m0 131c-21-30-90-53-172-53-82 0-151 23-172 53-5 7-7 3-7 0 0-2 0-60 0-60 0-45 80-82 179-82 99 0 179 37 179 82 0 0 0 58 0 60 0 3-2 7-7 0z m-172 167c-99 0-179-30-179-67l0-32c0-40 80-72 179-72 99 0 179 32 179 72l0 32c0 37-80 67-179 67z"/>
<glyph glyph-name="cycle" unicode="&#57459;" d="M141 148c-58 62-57 160 3 220 25 25 56 40 88 45l-2 53c-45-6-88-26-123-60-80-81-81-212-3-295l-44-45 141-8-1 149z m170 306l1-149 59 59c58-62 57-160-3-220-25-25-56-40-88-45l2-53c45 6 88 26 123 60 80 81 81 212 3 295l44 45z"/>
<glyph glyph-name="cw" unicode="&#57460;" d="M494 256l-60 0 0 5c-3 114-96 205-209 205-116 0-210-94-210-210 0-116 94-210 210-210 48 0 93 17 128 45l-36 38c-26-19-58-30-92-30-87 0-157 70-157 157 0 87 70 157 157 157 85 0 154-67 156-152l0-5-68 0 89-100z"/>
<glyph glyph-name="cup" unicode="&#57461;" d="M256 486c-110 0-178-36-174-65l37-345c1-12 57-50 137-50 80 0 136 38 137 50l37 345c4 29-64 65-174 65z m0-109c-80 0-137 28-137 39 0 10 57 39 137 39 80 0 137-29 137-39 0-11-57-39-137-39z"/>
<glyph glyph-name="cross" unicode="&#57462;" d="M367 132c-12-12-31-12-43 0l-68 77-68-77c-12-12-31-12-43 0-12 12-12 31 0 43l70 81-70 81c-12 12-12 31 0 43 12 12 31 12 43 0l68-77 68 77c12 12 31 12 43 0 12-12 12-31 0-43l-70-81 70-81c12-12 12-31 0-43z"/>
<glyph glyph-name="crop" unicode="&#57463;" d="M154 154l0 332-52 0 0-76-76 0 0-52 76 0 0-204c0-29 23-52 52-52l204 0 0-76 52 0 0 76 76 0 0 52z m204 25l52 0 0 179c0 29-23 52-52 52l-179 0 0-52 179 0z"/>
<glyph glyph-name="dots-three-vertical" unicode="&#57464;" d="M256 312c-31 0-56-25-56-56 0-31 25-56 56-56 31 0 56 25 56 56 0 31-25 56-56 56z m0 67c31 0 56 25 56 56 0 31-25 57-56 57-31 0-56-26-56-57 0-31 25-56 56-56z m0-246c-31 0-56-25-56-56 0-31 25-57 56-57 31 0 56 26 56 57 0 31-25 56-56 56z"/>
<glyph glyph-name="dots-two-horizontal" unicode="&#57465;" d="M358 312c-31 0-56-25-56-56 0-31 25-56 56-56 32 0 57 25 57 56 0 31-25 56-57 56z m-204 0c-31 0-57-25-57-56 0-31 26-56 57-56 31 0 56 25 56 56 0 31-25 56-56 56z"/>
<glyph glyph-name="dots-two-vertical" unicode="&#57466;" d="M256 302c31 0 56 25 56 56 0 31-25 57-56 57-31 0-56-25-56-57 0-31 25-56 56-56z m0-92c-31 0-56-25-56-56 0-32 25-57 56-57 31 0 56 25 56 57 0 31-25 56-56 56z"/>
<glyph glyph-name="download" unicode="&#57467;" d="M384 333l-77 0 0 153-102 0 0-153-77 0 128-128z m111-167c-5 5-41 44-51 54-7 6-17 10-27 10l-45 0 78-76-90 0c-3 0-5-2-7-4l-20-48-154 0-20 48c-2 2-4 4-7 4l-90 0 78 76-45 0c-10 0-20-4-27-10-10-10-46-49-51-54-13-14-19-24-16-38l14-78c3-13 18-24 32-24l418 0c14 0 29 11 32 24l14 78c3 14-3 24-16 38z"/>
<glyph glyph-name="drink" unicode="&#57468;" d="M449 444c10 14 12 42 12 42l-410 0c0 0 2-28 12-42l167-214 0-153-51 0c-51 0-51-51-51-51l256 0c0 0 0 51-51 51l-51 0 0 153z m-208-86c0 23 18 41 41 41 22 0 41-18 41-41 0-22-19-41-41-41-23 0-41 19-41 41z"/>
<glyph glyph-name="drive" unicode="&#57469;" d="M488 233l-81 203c-6 15-21 25-37 25l-228 0c-16 0-31-10-37-25l-81-203c-7-18-9-39-6-58l15-91c3-19 20-33 39-33l368 0c19 0 36 14 39 33l15 91c3 19 1 40-6 58z m-54-111c-2-11-11-20-23-20l-310 0c-12 0-21 9-23 20l-9 56c-3 14 8 27 22 27l330 0c14 0 25-13 23-27z"/>
<glyph glyph-name="drop" unicode="&#57470;" d="M261 498c0 5-10 5-10 0-23-182-138-220-138-346 0-78 65-142 143-142 78 0 143 64 143 142 0 126-115 164-138 346z m-22-202c-1-5-3-11-4-17-11-36-22-78-22-125 0-26-16-36-30-36-16 0-30 14-30 30 0 57 28 94 52 126 7 10 14 20 20 30 3 4 10 4 13 0 1-3 2-5 1-8z"/>
<glyph glyph-name="edit" unicode="&#57471;" d="M450 450c-37 37-65 31-65 31l-155-155-173-173-26-122 122 26 173 173 155 155c0 0 6 28-31 65z m-305-379l-41-9c-4 8-9 15-18 24-9 9-16 14-24 18l9 41 12 12c0 0 23 0 48-26 26-25 26-48 26-48z"/>
<glyph glyph-name="email" unicode="&#57472;" d="M374 200c0-21 6-30 22-30 36 0 58 46 58 121 0 116-84 171-189 171-108 0-206-72-206-209 0-131 86-203 218-203 45 0 75 5 121 21l10-41c-46-15-94-19-132-19-173 0-266 95-266 242 0 148 108 248 256 248 154 0 236-92 236-205 0-96-30-169-125-169-43 0-71 18-75 56-11-43-40-56-80-56-54 0-99 41-99 124 0 84 40 136 110 136 38 0 61-15 71-39l18 33 52 0 0-181z m-76 81c0 34-25 48-46 48-22 0-48-18-48-72 0-43 19-67 48-67 21 0 46 13 46 48z"/>
<glyph glyph-name="emoji-flirt" unicode="&#57473;" d="M192 262c21 0 38 20 38 45 0 25-17 45-38 45-21 0-38-20-38-45 0-25 17-45 38-45z m64 240c-136 0-246-110-246-246 0-136 110-246 246-246 136 0 246 110 246 246 0 136-110 246-246 246z m0-441c-107 0-195 88-195 195 0 107 88 195 195 195 107 0 195-88 195-195 0-107-88-195-195-195z m111 161c-9 5-21 1-26-8-1-2-22-41-85-41-63 0-84 39-85 41-5 9-16 13-26 8-9-5-13-16-9-26 2-2 32-62 120-62 88 0 118 60 120 62 4 10 1 21-9 26z m-79 66l64 0c11 0 19 9 19 19 0 11-8 19-19 19l-64 0c-11 0-19-8-19-19 0-10 8-19 19-19z"/>
<glyph glyph-name="emoji-happy" unicode="&#57474;" d="M256 502c-136 0-246-110-246-246 0-136 110-246 246-246 136 0 246 110 246 246 0 136-110 246-246 246z m0-441c-107 0-195 88-195 195 0 107 88 195 195 195 107 0 195-88 195-195 0-107-88-195-195-195z m-64 201c21 0 38 20 38 45 0 25-17 45-38 45-21 0-38-20-38-45 0-25 17-45 38-45z m128 0c21 0 38 20 38 45 0 25-17 45-38 45-21 0-38-20-38-45 0-25 17-45 38-45z m47-40c-9 5-21 1-26-8-1-2-22-41-85-41-63 0-84 39-85 41-5 9-16 13-26 8-9-5-13-16-9-26 2-2 32-62 120-62 88 0 118 60 120 62 4 10 1 21-9 26z"/>
<glyph glyph-name="flag" unicode="&#57475;" d="M485 369c-240-347-158 7-360-163l46-180-52 0-93 368 47 17c226 166 108-148 400-32 10 4 17-2 12-10z"/>
<glyph glyph-name="folder" unicode="&#57476;" d="M471 389c-3 11-17 21-31 21l-174 0c-14 0-34 8-44 18l-16 15c-10 10-29 18-44 18l-83 0c-14 0-27-12-29-26l-7-77 433 0z m26-56l-482 0c-9 0-16-8-15-16l24-248c1-10 9-18 20-18l424 0c11 0 19 8 20 18l24 248c1 8-6 16-15 16z"/>
<glyph glyph-name="folder-images" unicode="&#57477;" d="M471 440c-3 12-17 21-31 21l-368 0c-14 0-28-9-31-21l-5-30 440 0z m26-56l-482 0c-9 0-16-8-15-16l24-299c1-10 9-18 19-18l425 0c11 0 19 8 20 18l24 299c1 8-6 16-15 16z m-179-86c14 0 24-11 24-24 0-14-10-24-24-24-13 0-24 10-24 24 0 13 11 24 24 24z m-177-144l63 146 73-117 62 31 32-60z"/>
<glyph glyph-name="flash" unicode="&#57478;" d="M174 26c-5 3 81 183 78 191-3 8-94 37-98 51-5 13 179 222 184 218 5-4-80-185-78-191 2-6 96-36 98-50 3-15-179-223-184-219z"/>
<glyph glyph-name="emoji-neutral" unicode="&#57479;" d="M256 502c-136 0-246-110-246-246 0-136 110-246 246-246 136 0 246 110 246 246 0 136-110 246-246 246z m0-441c-107 0-195 88-195 195 0 107 88 195 195 195 107 0 195-88 195-195 0-107-88-195-195-195z m64 291c-21 0-38-20-38-45 0-25 17-45 38-45 21 0 38 20 38 45 0 25-17 45-38 45z m-128-90c21 0 38 20 38 45 0 25-17 45-38 45-21 0-38-20-38-45 0-25 17-45 38-45z m141-64l-154 0c-10 0-19-8-19-19 0-10 9-19 19-19l154 0c10 0 19 9 19 19 0 11-9 19-19 19z"/>
<glyph glyph-name="emoji-sad" unicode="&#57480;" d="M256 502c-136 0-246-110-246-246 0-136 110-246 246-246 136 0 246 110 246 246 0 136-110 246-246 246z m0-441c-107 0-195 88-195 195 0 107 88 195 195 195 107 0 195-88 195-195 0-107-88-195-195-195z m64 201c21 0 38 20 38 45 0 25-17 45-38 45-21 0-38-20-38-45 0-25 17-45 38-45z m-128 0c21 0 38 20 38 45 0 25-17 45-38 45-21 0-38-20-38-45 0-25 17-45 38-45z m64-38c-88 0-118-59-120-62-4-9 0-21 9-26 3-1 6-2 9-2 7 0 13 4 17 11 0 0 21 41 85 41 63 0 84-39 85-41 5-9 17-13 26-9 10 5 13 17 9 26-2 3-32 62-120 62z"/>
<glyph glyph-name="flashlight" unicode="&#57481;" d="M438 438c-43 43-97 59-114 42l-69-69c-10-11-19-46-15-81l-209-209c-12-13-2-43 22-68 25-24 55-34 68-22l209 209c35-4 70 5 81 15l69 69c17 17 1 71-42 114z m-230-209c-9 10-6 28 7 42 14 13 32 16 42 7 9-10 6-28-7-42-14-13-32-16-42-7z m173 152c-33 33-41 77-38 80 3 3 45-7 78-40 33-33 43-76 40-78-3-3-47 5-80 38z"/>
<glyph glyph-name="folder-music" unicode="&#57482;" d="M471 440c-3 12-17 21-31 21l-368 0c-14 0-28-9-31-21l-5-30 440 0z m26-56l-482 0c-9 0-16-8-15-16l24-299c1-10 9-18 19-18l425 0c11 0 19 8 20 18l24 299c1 8-6 16-15 16z m-191-193c-4-6-7-7-5 0 3 19 1 59-27 63l0-84c0-18-8-33-29-39-21-7-44 0-49 15-5 14 7 32 27 40 11 4 24 5 33 1l0 120 18 0c0-42 72-32 32-116z"/>
<glyph glyph-name="folder-video" unicode="&#57483;" d="M471 440c-3 12-17 21-31 21l-368 0c-14 0-28-9-31-21l-5-30 440 0z m26-56l-482 0c-9 0-16-8-15-16l24-299c1-10 9-18 19-18l425 0c11 0 19 8 20 18l24 299c1 8-6 16-15 16z m-292-230l0 128 112-64z"/>
<glyph glyph-name="flat-brush" unicode="&#57484;" d="M47 131c13-10 41 30 50 23 9-6-21-45-14-50 8-6 39 31 48 25 8-7-21-46-11-53 9-7 40 31 47 25 7-5-20-46-11-52 8-7 38 32 45 27 7-6-22-45-9-54 13-10 138 229 138 229l-100 75c0 0-196-186-183-195z m286 360l-86-132 106-80 112 109c-13 38-88 98-132 103z"/>
<glyph glyph-name="erase" unicode="&#57485;" d="M461 435l-245 0c-11 0-27-6-36-13l-174-153c-8-7-8-19 0-26l174-153c9-7 25-13 36-13l245 0c28 0 51 23 51 51l0 256c0 28-23 51-51 51z m-72-281l-66 65-65-65-37 37 65 65-65 65 37 37 65-65 66 65 37-37-66-65 66-65z"/>
<glyph glyph-name="eraser" unicode="&#57486;" d="M435 405l-81 62c-22 17-54 13-71-9l-215-279c-18-23-13-55 9-72l81-62c22-17 54-13 71 9l215 279c18 23 13 55-9 72z m-216-315l-14-17c-4-5-10-8-16-8-3 0-8 1-13 4l-80 62c-5 4-7 8-8 14-1 5 1 11 4 15l14 17c3 5 9 8 16 8 3 0 8 0 12-4l81-62c4-3 7-8 8-13 1-6-1-11-4-16z"/>
<glyph glyph-name="forward" unicode="&#57487;" d="M307 208l0-112 179 172-179 168 0-102c-224 0-281-249-281-249 63 112 159 123 281 123z"/>
<glyph glyph-name="graduation-cap" unicode="&#57488;" d="M85 199c11-48 27-69 77-91 50-22 74-47 94-47 20 0 42 21 93 44 50 22 37 28 48 76l-141-68z m414 125l-213 120c-16 9-44 9-60 0l-214-120c-16-9-16-24 0-34l214-119c16-9 44-9 60 0l138 77-149 35c-6-1-12-2-19-2-27 0-49 13-49 29 0 16 22 29 49 29 21 0 39-8 46-19l158-52 39 22c17 10 17 25 0 34z m-65-226c-1-10 33-26 36 3 15 130-10 167-10 167l-36-20c0 0 30-29 10-150z"/>
<glyph glyph-name="grid" unicode="&#57489;" d="M205 410l-77 0c-14 0-26-12-26-26l0-77c0-14 12-25 26-25l77 0c14 0 25 11 25 25l0 77c0 14-11 26-25 26z m179 0l-77 0c-14 0-25-12-25-26l0-77c0-14 11-25 25-25l77 0c14 0 26 11 26 25l0 77c0 14-12 26-26 26z m-179-180l-77 0c-14 0-26-11-26-25l0-77c0-14 12-26 26-26l77 0c14 0 25 12 25 26l0 77c0 14-11 25-25 25z m179 0l-77 0c-14 0-25-11-25-25l0-77c0-14 11-26 25-26l77 0c14 0 26 12 26 26l0 77c0 14-12 25-26 25z"/>
<glyph glyph-name="funnel" unicode="&#57490;" d="M256 486c-126 0-205-38-205-76l0-52c0-23 154-153 154-153l0-154c0-17 25-25 51-25 26 0 51 8 51 25l0 154c0 0 154 130 154 153l0 52c0 38-79 76-205 76z m0-131c-92 0-157 34-157 47 0 13 65 47 157 47 92 0 157-34 157-47 0-13-65-47-157-47z"/>
<glyph glyph-name="export" unicode="&#57491;" d="M384 128l-333 0 0 230 67 0c0 0 17 23 55 52l-147 0c-15 0-26-12-26-26l0-282c0-14 11-25 26-25l384 0c14 0 25 11 25 25l0 96-51-42z m-42 178l0-91 170 133-170 128 0-80c-206 0-206-204-206-204 58 96 94 114 206 114z"/>
<glyph glyph-name="eye" unicode="&#57492;" d="M256 399c-168 0-256-123-256-143 0-20 88-143 256-143 168 0 256 123 256 143 0 20-88 143-256 143z m0-253c-63 0-114 49-114 110 0 61 51 110 114 110 63 0 114-49 114-110 0-61-51-110-114-110z m0 110c-10 11 17 55 0 55-31 0-57-25-57-55 0-30 26-55 57-55 31 0 57 25 57 55 0 14-48-10-57 0z"/>
<glyph glyph-name="eye-with-line" unicode="&#57493;" d="M474 474c-10 10-26 10-36 0l-400-400c-10-10-10-26 0-36 10-10 26-10 36 0l400 400c10 10 10 26 0 36z m-394-308l65 66c-2 8-3 16-3 24 0 61 51 110 114 110 7 0 14-1 21-2l31 31c-16 3-34 4-52 4-168 0-256-123-256-143 0-11 27-54 80-90z m353 179l-66-65c2-8 3-16 3-24 0-61-51-110-114-110-7 0-14 1-21 2l-31-31c16-3 34-4 52-4 168 0 256 123 256 143 0 11-27 53-79 89z"/>
<glyph glyph-name="flow-cascade" unicode="&#57494;" d="M358 138c-24 0-46-15-55-36l-85 0c-22 0-39 18-39 39l0 98c12-5 25-9 39-9l85 0c9-21 31-35 55-35 34 0 62 27 62 61 0 34-28 61-62 61-24 0-46-14-55-35l-85 0c-22 0-39 17-39 38l0 59c21 10 36 31 36 56 0 34-27 62-61 62-34 0-62-28-62-62 0-25 15-46 36-56l0-238c0-50 40-90 90-90l85 0c9-21 31-36 55-36 34 0 62 28 62 62 0 34-28 61-62 61z m0 153c20 0 36-15 36-35 0-20-16-35-36-35-19 0-35 15-35 35 0 20 16 35 35 35z m-204 180c19 0 35-16 35-36 0-19-16-35-35-35-20 0-36 16-36 35 0 20 16 36 36 36z m204-430c-19 0-35 16-35 36 0 19 16 35 35 35 20 0 36-16 36-35 0-20-16-36-36-36z"/>
<glyph glyph-name="flow-branch" unicode="&#57495;" d="M420 410c0 34-28 61-62 61-34 0-61-27-61-61 0-25 15-46 35-56-2-40-32-54-85-74-22-8-47-18-68-32l0 106c21 10 36 31 36 56 0 34-27 61-61 61-34 0-62-27-62-61 0-25 15-46 36-56l0-196c-21-10-36-31-36-56 0-34 28-61 62-61 34 0 61 27 61 61 0 25-14 46-35 56 2 40 32 54 85 74 52 20 116 44 119 122 21 9 36 31 36 56z m-266 35c19 0 35-16 35-35 0-20-16-36-35-36-20 0-36 16-36 36 0 19 16 35 36 35z m0-378c-20 0-36 16-36 35 0 20 16 36 36 36 19 0 35-16 35-36 0-19-16-35-35-35z m204 307c-19 0-35 16-35 36 0 19 16 35 35 35 20 0 36-16 36-35 0-20-16-36-36-36z"/>
<glyph glyph-name="game-controller" unicode="&#57496;" d="M498 272c-23 126-73 164-100 164-42 0-53-31-142-33-89 2-100 33-142 33-27 0-77-38-100-164-13-72-27-179 7-192 41-16 55 24 101 58 46 34 68 42 134 42 66 0 88-8 134-42 46-34 60-74 101-58 34 13 20 120 7 192z m-344-16c-29 0-52 23-52 51 0 28 23 51 52 51 28 0 51-23 51-51 0-28-23-51-51-51z m179 0c-14 0-26 11-26 26 0 14 12 25 26 25 14 0 25-11 25-25 0-15-11-26-25-26z m51 51c-14 0-26 12-26 26 0 14 12 25 26 25 14 0 26-11 26-25 0-14-12-26-26-26z"/>
<glyph glyph-name="gauge" unicode="&#57497;" d="M208 164c-18-31-6-56 19-70 24-14 52-12 70 19 17 30 129 303 119 309-9 6-190-228-208-258z m48 194c11 0 22-1 33-2 11 14 24 29 36 44-22 6-45 10-69 10-144 0-256-121-256-276 0-10 0-19 1-28 2-14 14-25 28-23 14 1 25 13 23 27 0 8-1 16-1 24 0 126 90 224 205 224z m185-32c-7-19-15-38-22-55 26-38 42-85 42-137 0-8-1-16-1-24-2-14 9-27 23-28 1 0 1 0 2 0 13 0 24 10 26 23 1 10 1 19 1 29 0 76-27 143-71 192z"/>
<glyph glyph-name="hair-cross" unicode="&#57498;" d="M256 502c-136 0-246-110-246-246 0-136 110-246 246-246 136 0 246 110 246 246 0 136-110 246-246 246z m26-439l0 116-52 0 0-116c-87 12-155 80-167 167l116 0 0 52-116 0c12 87 80 155 167 167l0-116 52 0 0 116c86-12 155-80 167-167l-116 0 0-52 116 0c-12-86-81-155-167-167z"/>
<glyph glyph-name="hand" unicode="&#57499;" d="M459 69c-2-5-5-10-11-11-4-2-140-41-144-42-12-3-21-1-26 4-9 7-105 73-227 79-13 1-6 50 31 50 25 0 100-19 109-10 7 7 10 49-19 120l-58 145c-6 13 1 29 14 34 14 6 30-1 35-14 0 0 46-114 51-126 5-13 11-17 18-15 6 3 7 7 3 18l-52 155c-5 14 3 29 17 34 14 4 29-3 33-17l50-147c5-13 9-19 17-16 4 2 4 8 3 14l-35 140c-4 15 5 29 19 33 15 3 29-5 33-20l32-129c5-19 9-26 16-24 8 2 8 8 7 14-3 12-23 110-23 110-2 14 6 26 19 29 14 3 26-6 29-19l24-121 0 0c0 0 0 0 0 0l15-72c3-14 7-26 11-39 28-74 14-142 9-157z"/>
<glyph glyph-name="heart" unicode="&#57500;" d="M440 406c-43 39-112 39-155 0l-29-27-29 27c-43 39-112 39-155 0-48-45-48-116 0-160l184-169 184 169c48 44 48 115 0 160z"/>
<glyph glyph-name="heart-outlined" unicode="&#57501;" d="M440 406c-43 39-112 39-155 0l-29-27-29 27c-43 39-112 39-155 0-48-45-48-116 0-160l184-169 184 169c48 44 48 115 0 160z m-27-134l-157-146-157 146c-16 15-22 33-22 54 0 20 4 36 20 51 14 13 32 20 52 20 21 0 39-13 53-25l54-47 54 47c14 13 32 25 53 25 20 0 38-7 52-20 16-15 20-31 20-51 0-21-6-39-22-54z"/>
<glyph glyph-name="help" unicode="&#57502;" d="M361 455c-29 21-66 31-110 31-34 0-62-7-85-22-37-23-56-62-58-118l84 0c0 16 5 32 14 47 10 15 26 22 48 22 23 0 39-6 48-18 9-12 13-26 13-40 0-13-7-25-14-36-5-6-10-12-17-17 0 0-46-30-66-53-12-14-13-34-14-64 0-2 1-6 8-6 7 0 59 0 66 0 6 0 8 5 8 7 0 10 1 16 3 22 4 12 14 22 25 31l24 16c21 16 38 30 45 40 13 18 22 39 22 64-1 42-15 73-44 94z m-112-325c-29 1-53-19-54-51-1-32 22-53 51-53 31-1 54 18 55 50 1 32-21 53-52 54z"/>
<glyph glyph-name="help-with-circle" unicode="&#57503;" d="M256 502c-136 0-246-110-246-246 0-136 110-246 246-246 136 0 246 110 246 246 0 136-110 246-246 246z m-4-389l-1 0c-20 0-34 15-34 35 1 19 15 33 35 33l1 0c20 0 34-15 34-35-1-20-15-33-35-33z m84 167c-4-7-15-15-28-25l-14-10c-8-6-13-12-15-18-1-4-2-5-2-15l0-2-55 0 0 5c1 19 2 30 10 39 12 15 39 33 41 33 3 3 7 7 9 10 6 8 9 14 9 21 0 8-3 16-8 23-5 7-14 10-27 10-13 0-22-4-28-13-5-8-8-17-8-27l0-2-57 0 1 2c1 35 13 60 36 74 15 10 33 14 54 14 27 0 50-6 68-19 19-14 28-34 28-60 0-14-5-28-14-40z"/>
<glyph glyph-name="globe" unicode="&#57504;" d="M256 502c-136 0-246-111-246-246 0-136 110-246 246-246 136 0 246 110 246 246 0 135-110 246-246 246z m210-246c0-48-17-92-44-127-7 6-16 22-8 38 8 17 10 57 8 72-2 15-10 52-31 52-22 0-36 7-49 33-26 53 50 63 23 92-7 8-45-34-51 22 0 4 3 10 9 17 83-28 143-107 143-199z m-239 208c-5-10-18-14-26-22-18-15-25-13-35-28-9-16-40-38-40-49 0-11 16-23 24-21 7 3 28 2 40-2 12-4 100-8 72-83-9-24-48-20-59-59-1-6-7-30-7-38-1-13 9-59-3-59-12 0-45 41-45 49 0 8-8 34-8 57 0 23-39 23-39 53 0 27 21 41 16 54-4 13-41 14-57 15 27 70 91 122 167 133z m-37-407c13 7 14 15 25 16 13 0 24 5 39 8 13 3 36 16 57 18 17 1 51-1 61-18-34-22-73-35-116-35-23 0-45 4-66 11z"/>
</font>
</defs>
</svg>
